<svg width="25" height="25" viewBox="0 0 25 25" fill="none" xmlns="http://www.w3.org/2000/svg">
<path d="M12.5 24.1546C5.60749 24.1546 0 18.7367 0 12.0773C0 5.41787 5.60749 0 12.5 0C19.3925 0 25 5.41787 25 12.0773C25 18.7367 19.3925 24.1546 12.5 24.1546ZM12.5 1.52532C6.47799 1.52532 1.57871 6.25893 1.57871 12.0773C1.57871 17.8957 6.47799 22.6293 12.5 22.6293C18.522 22.6293 23.4213 17.8957 23.4213 12.0773C23.4213 6.25893 18.522 1.52532 12.5 1.52532Z" fill="#5B616B"/>
<path d="M17.6866 12.84H12.4998C12.0641 12.84 11.7104 12.4983 11.7104 12.0773V3.72213C11.7104 3.30118 12.0641 2.95947 12.4998 2.95947C12.9355 2.95947 13.2892 3.30118 13.2892 3.72213V11.3146H17.6866C18.1223 11.3146 18.476 11.6564 18.476 12.0773C18.476 12.4983 18.1223 12.84 17.6866 12.84Z" fill="#5B616B"/>
</svg>
