<svg version="1.1" id="Layer_1" xmlns="http://www.w3.org/2000/svg" xmlns:xlink="http://www.w3.org/1999/xlink" x="0px" y="0px"
	 viewBox="0 0 1000 1000" xml:space="preserve">
<path d="M979.5,881.8L636,538.1c36.6-54.7,57.8-120.6,57.8-191.2C693.8,155.6,538.2,0.1,347,0.1
	C155.4,0.2,0,155.6,0,346.9c0,191.4,155.4,346.9,346.9,346.9c70.4,0,136.4-21.2,191.2-57.7l343.5,343.7
	c13.3,13.6,31.3,20.3,49.1,20.3c17.7,0,35.5-6.8,48.9-20.3C1006.8,952.7,1006.8,908.7,979.5,881.8z M83.2,346.9
	c0-145.3,118.3-263.6,263.7-263.6c145.3,0,263.5,118.2,263.5,263.6S492.2,610.6,346.9,610.6C201.5,610.6,83.2,492.4,83.2,346.9z"/>
</svg>

