<svg width="25" height="24" viewBox="0 0 25 24" fill="none" xmlns="http://www.w3.org/2000/svg">
<path d="M17.2767 9.38952C17.2767 5.33232 13.7974 2.08656 9.71815 2.08656C5.51895 2.08656 2.15959 5.33232 2.15959 9.38952C2.15959 13.3308 5.51895 16.6925 9.71815 16.6925C13.7974 16.6925 17.2767 13.3308 17.2767 9.38952ZM17.6367 14.7218L24.5953 21.3293C25.5551 22.3726 24.1154 23.8795 23.0356 22.8362L16.1969 16.2288C14.5172 17.8517 12.2377 18.779 9.71815 18.779C4.31918 18.779 0 14.49 0 9.38952C0 4.17312 4.31918 0 9.71815 0C14.9972 0 19.4363 4.17312 19.4363 9.38952C19.4363 11.3602 18.7164 13.2149 17.6367 14.7218Z" fill="#5B616B"/>
</svg>
