<svg version="1.1" id="Layer_1" xmlns="http://www.w3.org/2000/svg" xmlns:xlink="http://www.w3.org/1999/xlink" x="0px" y="0px"
	 viewBox="0 0 1403.5 1000" xml:space="preserve">
<g>
	<path d="M1298.2,210H479.3c-58.2,0-105.1-47-105.1-105.1c0-58.2,46.9-105.1,105.1-105.1h818.9
		c58.2,0,105.3,47,105.3,105.1S1356.5,210,1298.2,210z M1403.5,499.6c0-58.2-47-105.1-105.3-105.1H479.3
		c-58.2,0-105.1,47-105.1,105.1s46.9,105.1,105.1,105.1h818.9C1356.5,604.8,1403.5,557.8,1403.5,499.6z M1403.5,894.4
		c0-58.1-47-105.1-105.3-105.1H479.3c-58.2,0-105.1,47-105.1,105.1c0,58.2,46.9,105.1,105.1,105.1h818.9
		C1356.5,999.5,1403.5,952.6,1403.5,894.4z"/>
	<path d="M210.5,105.1c0,58.1-47.2,105.4-105.3,105.4C47,210.5,0,163.3,0,105.1S47-0.4,105.3-0.4
		C163.4-0.2,210.5,46.8,210.5,105.1z"/>
	<path d="M210.5,105.1c0,58.1-47.2,105.4-105.3,105.4C47,210.5,0,163.3,0,105.1S47-0.4,105.3-0.4
		C163.4-0.2,210.5,46.8,210.5,105.1z"/>
	<path d="M210.5,499.6c0,58.2-47.2,105.4-105.3,105.4C47,605,0,557.8,0,499.6s47-105.4,105.3-105.4
		C163.4,394.3,210.5,441.5,210.5,499.6z"/>
	<path d="M210.5,894.2c0,58.2-47.2,105.4-105.3,105.4C47,999.6,0,952.5,0,894.2c0-58.1,47-105.4,105.3-105.4
		C163.4,788.8,210.5,836,210.5,894.2z"/>
</g>
</svg>
