<svg version="1.1" id="Layer_1" xmlns="http://www.w3.org/2000/svg" xmlns:xlink="http://www.w3.org/1999/xlink" x="0px" y="0px"
	 viewBox="0 0 1417.8 1000" xml:space="preserve">
<g>
	<path d="M318.3,634.2c-3.1,0-6.5-0.6-9.6-1.8c-9.4-4-15.5-13-15.5-23.3V399.2c0-13.9,11.2-25.1,25.1-25.1
		c14,0,25.2,11.2,25.2,25.1v149l62-62c9.8-9.8,25.7-9.8,35.6,0c9.8,9.8,9.8,25.8,0,35.6L336.2,626.8
		C331.3,631.6,324.8,634.2,318.3,634.2z M637.5,571.9c0-175.7-143.1-318.7-318.7-318.7C142.9,253.2,0,396.3,0,571.9
		s142.9,318.9,318.7,318.9C494.4,890.8,637.5,747.7,637.5,571.9z M570.4,571.9c0,138.8-112.9,251.5-251.7,251.5
		c-138.7,0-251.5-112.9-251.5-251.5s112.9-251.5,251.5-251.5S570.4,433.3,570.4,571.9z"/>
	<path d="M627,336.6c80,88.9,83.9,176.9,83.9,237.8c0,92.9-31.6,178.5-83.9,247.1V956c0,24.4,19.7,44.2,44.2,44.2h702.4
		c24.4,0,44.2-19.8,44.2-44.2V44.5c0-24.4-19.8-44.2-44.2-44.2H671.1c-24.5,0-44.2,19.8-44.2,44.2v157.9 M1283.6,845.8H783.5v-71.6
		h500.1V845.8z M1283.6,679.7H783.5v-71.6h500.1V679.7z M1283.6,513.5l-500.1,5.8v-71.6l500.1-5.8V513.5z M1283.6,353.3l-500.1,5.8
		v-71.6l500.1-5.8V353.3z M1283.6,193.2L783.5,199v-71.7l500.1-5.8V193.2z"/>
</g>
</svg>
