<svg width="202" height="182" viewBox="0 0 202 182" fill="none" xmlns="http://www.w3.org/2000/svg">
<path d="M198 0H4C1.79 0 0 1.79 0 4V178C0 180.21 1.79 182 4 182H198C200.21 182 202 180.21 202 178V4C202 1.79 200.21 0 198 0ZM200 25.17H2.03V27.17H200V178C200 179.1 199.1 180 198 180H4C2.9 180 2 179.1 2 178V4C2 2.9 2.9 2 4 2H198C199.1 2 200 2.9 200 4V25.17Z" fill="#056791"/>
<path d="M14.34 6.81006C11.03 6.81006 8.33997 9.64006 8.33997 13.1201C8.33997 16.6001 11.03 19.4301 14.34 19.4301C17.65 19.4301 20.34 16.6001 20.34 13.1201C20.34 9.64006 17.65 6.81006 14.34 6.81006ZM14.34 17.4201C12.13 17.4201 10.34 15.4901 10.34 13.1101C10.34 10.7301 12.13 8.80006 14.34 8.80006C16.55 8.80006 18.34 10.7301 18.34 13.1101C18.34 15.4901 16.54 17.4201 14.34 17.4201Z" fill="#056791"/>
<path d="M28.84 6.81006C25.53 6.81006 22.84 9.64006 22.84 13.1201C22.84 16.6001 25.53 19.4301 28.84 19.4301C32.15 19.4301 34.84 16.6001 34.84 13.1201C34.84 9.64006 32.15 6.81006 28.84 6.81006ZM28.84 17.4201C26.63 17.4201 24.84 15.4901 24.84 13.1101C24.84 10.7301 26.63 8.80006 28.84 8.80006C31.05 8.80006 32.84 10.7301 32.84 13.1101C32.84 15.4901 31.05 17.4201 28.84 17.4201Z" fill="#056791"/>
<path d="M44.35 6.81006C41.04 6.81006 38.35 9.64006 38.35 13.1201C38.35 16.6001 41.04 19.4301 44.35 19.4301C47.66 19.4301 50.35 16.6001 50.35 13.1201C50.35 9.64006 47.66 6.81006 44.35 6.81006ZM44.35 17.4201C42.14 17.4201 40.35 15.4901 40.35 13.1101C40.35 10.7301 42.14 8.80006 44.35 8.80006C46.56 8.80006 48.35 10.7301 48.35 13.1101C48.35 15.4901 46.55 17.4201 44.35 17.4201Z" fill="#056791"/>
<path d="M171.01 88H169.01V89H168.01V91H171.01V88Z" fill="#A8DFF7"/>
<path d="M93.63 89H89.72V91H93.63V89Z" fill="#A8DFF7"/>
<path d="M101.46 89H97.55V91H101.46V89Z" fill="#A8DFF7"/>
<path d="M132.77 89H128.86V91H132.77V89Z" fill="#A8DFF7"/>
<path d="M109.3 89H105.38V91H109.3V89Z" fill="#A8DFF7"/>
<path d="M85.8 89H81.89V91H85.8V89Z" fill="#A8DFF7"/>
<path d="M124.96 89H121.04V91H124.96V89Z" fill="#A8DFF7"/>
<path d="M117.13 89H113.21V91H117.13V89Z" fill="#A8DFF7"/>
<path d="M46.67 89H42.75V91H46.67V89Z" fill="#A8DFF7"/>
<path d="M54.4899 89H50.5699V91H54.4899V89Z" fill="#A8DFF7"/>
<path d="M38.83 89H34.92V91H38.83V89Z" fill="#A8DFF7"/>
<path d="M70.14 89H66.23V91H70.14V89Z" fill="#A8DFF7"/>
<path d="M62.32 89H58.4V91H62.32V89Z" fill="#A8DFF7"/>
<path d="M77.9701 89H74.0601V91H77.9701V89Z" fill="#A8DFF7"/>
<path d="M148.43 89H144.52V91H148.43V89Z" fill="#A8DFF7"/>
<path d="M140.6 89H136.69V91H140.6V89Z" fill="#A8DFF7"/>
<path d="M164.09 89H160.18V91H164.09V89Z" fill="#A8DFF7"/>
<path d="M156.26 89H152.35V91H156.26V89Z" fill="#A8DFF7"/>
<path d="M31 89H30V88H28V91H31V89Z" fill="#A8DFF7"/>
<path d="M30 65.3701H28V69.1401H30V65.3701Z" fill="#A8DFF7"/>
<path d="M30 80.46H28V84.23H30V80.46Z" fill="#A8DFF7"/>
<path d="M30 72.9102H28V76.6802H30V72.9102Z" fill="#A8DFF7"/>
<path d="M30 57.8198H28V61.5898H30V57.8198Z" fill="#A8DFF7"/>
<path d="M30 53.0498H31V51.0498H28V54.0498H30V53.0498Z" fill="#A8DFF7"/>
<path d="M93.64 51.0498H89.72V53.0498H93.64V51.0498Z" fill="#A8DFF7"/>
<path d="M46.66 51.0498H42.75V53.0498H46.66V51.0498Z" fill="#A8DFF7"/>
<path d="M101.46 51.0498H97.55V53.0498H101.46V51.0498Z" fill="#A8DFF7"/>
<path d="M156.27 51.0498H152.35V53.0498H156.27V51.0498Z" fill="#A8DFF7"/>
<path d="M148.44 51.0498H144.52V53.0498H148.44V51.0498Z" fill="#A8DFF7"/>
<path d="M77.9801 51.0498H74.0601V53.0498H77.9801V51.0498Z" fill="#A8DFF7"/>
<path d="M54.49 51.0498H50.58V53.0498H54.49V51.0498Z" fill="#A8DFF7"/>
<path d="M38.83 51.0498H34.92V53.0498H38.83V51.0498Z" fill="#A8DFF7"/>
<path d="M62.31 51.0498H58.4V53.0498H62.31V51.0498Z" fill="#A8DFF7"/>
<path d="M70.14 51.0498H66.23V53.0498H70.14V51.0498Z" fill="#A8DFF7"/>
<path d="M85.81 51.0498H81.89V53.0498H85.81V51.0498Z" fill="#A8DFF7"/>
<path d="M164.09 51.0498H160.18V53.0498H164.09V51.0498Z" fill="#A8DFF7"/>
<path d="M140.61 51.0498H136.69V53.0498H140.61V51.0498Z" fill="#A8DFF7"/>
<path d="M109.29 51.0498H105.38V53.0498H109.29V51.0498Z" fill="#A8DFF7"/>
<path d="M124.95 51.0498H121.04V53.0498H124.95V51.0498Z" fill="#A8DFF7"/>
<path d="M117.12 51.0498H113.21V53.0498H117.12V51.0498Z" fill="#A8DFF7"/>
<path d="M132.78 51.0498H128.86V53.0498H132.78V51.0498Z" fill="#A8DFF7"/>
<path d="M169.01 54.0498H171.01V51.0498H168.01V53.0498H169.01V54.0498Z" fill="#A8DFF7"/>
<path d="M171.01 57.8198H169.01V61.5898H171.01V57.8198Z" fill="#A8DFF7"/>
<path d="M171.01 80.46H169.01V84.23H171.01V80.46Z" fill="#A8DFF7"/>
<path d="M171.01 72.9102H169.01V76.6802H171.01V72.9102Z" fill="#A8DFF7"/>
<path d="M171.01 65.3701H169.01V69.1401H171.01V65.3701Z" fill="#A8DFF7"/>
<path d="M49 110.25H45V112.25H49V110.25Z" fill="#A8DFF7"/>
<path d="M41 110.25H37V112.25H41V110.25Z" fill="#A8DFF7"/>
<path d="M33 110.25H29V112.25H33V110.25Z" fill="#A8DFF7"/>
<path d="M137 110.25H133V112.25H137V110.25Z" fill="#A8DFF7"/>
<path d="M113 110.25H109V112.25H113V110.25Z" fill="#A8DFF7"/>
<path d="M121 110.25H117V112.25H121V110.25Z" fill="#A8DFF7"/>
<path d="M129 110.25H125V112.25H129V110.25Z" fill="#A8DFF7"/>
<path d="M57 110.25H53V112.25H57V110.25Z" fill="#A8DFF7"/>
<path d="M105 110.25H101V112.25H105V110.25Z" fill="#A8DFF7"/>
<path d="M73 110.25H69V112.25H73V110.25Z" fill="#A8DFF7"/>
<path d="M97 110.25H93V112.25H97V110.25Z" fill="#A8DFF7"/>
<path d="M65 110.25H61V112.25H65V110.25Z" fill="#A8DFF7"/>
<path d="M81 110.25H77V112.25H81V110.25Z" fill="#A8DFF7"/>
<path d="M89 110.25H85V112.25H89V110.25Z" fill="#A8DFF7"/>
<path d="M168.85 129.99H165V131.99H168.85V129.99Z" fill="#A8DFF7"/>
<path d="M89 129.99H85V131.99H89V129.99Z" fill="#A8DFF7"/>
<path d="M145 129.99H141V131.99H145V129.99Z" fill="#A8DFF7"/>
<path d="M153 129.99H149V131.99H153V129.99Z" fill="#A8DFF7"/>
<path d="M81 129.99H77V131.99H81V129.99Z" fill="#A8DFF7"/>
<path d="M97 129.99H93V131.99H97V129.99Z" fill="#A8DFF7"/>
<path d="M73 129.99H69V131.99H73V129.99Z" fill="#A8DFF7"/>
<path d="M137 129.99H133V131.99H137V129.99Z" fill="#A8DFF7"/>
<path d="M105 129.99H101V131.99H105V129.99Z" fill="#A8DFF7"/>
<path d="M129 129.99H125V131.99H129V129.99Z" fill="#A8DFF7"/>
<path d="M121 129.99H117V131.99H121V129.99Z" fill="#A8DFF7"/>
<path d="M113 129.99H109V131.99H113V129.99Z" fill="#A8DFF7"/>
<path d="M161 129.99H157V131.99H161V129.99Z" fill="#A8DFF7"/>
<path d="M57 129.99H53V131.99H57V129.99Z" fill="#A8DFF7"/>
<path d="M49 129.99H45V131.99H49V129.99Z" fill="#A8DFF7"/>
<path d="M41 129.99H37V131.99H41V129.99Z" fill="#A8DFF7"/>
<path d="M33 129.99H29V131.99H33V129.99Z" fill="#A8DFF7"/>
<path d="M65 129.99H61V131.99H65V129.99Z" fill="#A8DFF7"/>
<path d="M49 149.73H45V151.73H49V149.73Z" fill="#A8DFF7"/>
<path d="M41 149.73H37V151.73H41V149.73Z" fill="#A8DFF7"/>
<path d="M65 149.73H61V151.73H65V149.73Z" fill="#A8DFF7"/>
<path d="M73 149.73H69V151.73H73V149.73Z" fill="#A8DFF7"/>
<path d="M57 149.73H53V151.73H57V149.73Z" fill="#A8DFF7"/>
<path d="M33 149.73H29V151.73H33V149.73Z" fill="#A8DFF7"/>
<path d="M81 149.73H77V151.73H81V149.73Z" fill="#A8DFF7"/>
</svg>
