<svg width="32" height="40" viewBox="0 0 32 40" fill="none" xmlns="http://www.w3.org/2000/svg">
<rect x="1" y="5" width="29.9539" height="34" stroke="#046791" stroke-width="2"/>
<line y1="12" x2="31.9539" y2="12" stroke="#046791" stroke-width="2"/>
<line x1="8.7637" y1="9" x2="8.7637" y2="4.92463e-08" stroke="#046791" stroke-width="2"/>
<line x1="22.0778" y1="9" x2="22.0778" y2="4.92463e-08" stroke="#046791" stroke-width="2"/>
<path fill-rule="evenodd" clip-rule="evenodd" d="M15.9769 34C20.3888 34 23.9654 29.9706 23.9654 25C23.9654 20.0294 20.3888 16 15.9769 16C11.565 16 7.98846 20.0294 7.98846 25C7.98846 29.9706 11.565 34 15.9769 34ZM15.9769 17.7143V24.7857V32.2857C19.5485 32.2857 22.4438 29.0238 22.4438 25C22.4438 20.9762 19.5485 17.7143 15.9769 17.7143Z" fill="#046791"/>
</svg>
