<svg width="672" height="533" viewBox="0 0 672 533" fill="none" xmlns="http://www.w3.org/2000/svg">
<g clip-path="url(#clip0)">
<path opacity="0.1" d="M230.088 522.737C262.327 522.737 288.461 518.547 288.461 513.38C288.461 508.212 262.327 504.022 230.088 504.022C197.849 504.022 171.714 508.212 171.714 513.38C171.714 518.547 197.849 522.737 230.088 522.737Z" fill="#48B1DD"/>
<path opacity="0.1" d="M547.399 523C587.628 523 620.24 518.811 620.24 513.643C620.24 508.475 587.628 504.286 547.399 504.286C507.17 504.286 474.557 508.475 474.557 513.643C474.557 518.811 507.17 523 547.399 523Z" fill="#48B1DD"/>
<path opacity="0.1" d="M18.2912 257.21H79.0912V339.917H22.7424C22.5926 340.766 22.4488 341.621 22.293 342.476H79.0912V409.178C78.9893 409.148 78.8995 409.112 78.8036 409.077C77.1981 408.443 75.6046 407.773 74.011 407.056L72.9926 406.595C71.3951 405.842 69.7976 405.045 68.2 404.204C67.6429 403.911 67.0858 403.606 66.5346 403.295C57.6658 398.337 49.609 392.054 42.6436 384.664C42.4399 384.467 42.2482 384.258 42.0445 384.066C41.074 383.014 40.1215 381.95 39.1989 380.862L38.1805 379.666C37.0902 378.333 36.0358 376.963 35.0114 375.576C34.8616 375.373 34.7178 375.17 34.5621 374.978C30.3958 369.213 26.9365 362.97 24.258 356.384C24.1741 356.186 24.1022 355.971 24.0244 355.786C23.2016 353.673 22.4728 351.541 21.8378 349.388C21.5622 348.485 21.2986 347.594 21.0709 346.656C20.9871 346.381 20.9152 346.112 20.8493 345.843C17.4465 332.587 17.0452 318.818 17.0452 305.144C17.0452 303.547 17.0452 301.945 17.0452 300.36C17.0452 294.83 17.1111 289.263 17.2069 283.703C17.2069 282.262 17.2668 280.827 17.2968 279.38C17.3806 275.709 17.5005 272.038 17.6562 268.367C17.6922 267.344 17.7401 266.328 17.794 265.312C17.794 264.726 17.824 264.14 17.8839 263.554C18.0276 261.425 18.1475 259.315 18.2912 257.21Z" fill="#48B1DD"/>
<path opacity="0.1" d="M79.0911 165.121H45.7407C51.162 156.652 57.0854 148.514 63.4793 140.751C68.4336 134.676 73.6635 128.757 79.0911 123.053V165.121Z" fill="#48B1DD"/>
<path opacity="0.1" d="M79.0912 167.68V254.65H18.4829C18.4829 254.399 18.5248 254.142 18.5428 253.891C18.5967 253.203 18.6506 252.516 18.7106 251.834C18.7765 251.033 18.8483 250.226 18.9262 249.442C19.0041 248.659 19.088 247.703 19.1778 246.836C19.2677 245.969 19.3516 245.09 19.4534 244.223C19.5553 243.356 19.6451 242.489 19.7529 241.628C19.8608 240.767 19.9566 239.894 20.0705 239.033C20.1603 238.316 20.2562 237.604 20.352 236.887C20.4898 235.876 20.6336 234.86 20.7893 233.855C20.7893 233.706 20.8313 233.55 20.8552 233.407C21.9487 226.054 23.4385 218.765 25.3183 211.572C27.286 204.026 29.7987 196.632 32.8367 189.449C36.0655 181.935 39.846 174.668 44.1472 167.71L79.0912 167.68Z" fill="#48B1DD"/>
<path opacity="0.1" d="M93.6067 257.204V339.917H223.468V257.204H93.6067ZM93.6067 342.47V413.501C94.3495 413.656 95.0864 413.805 95.8173 413.931C96.8117 414.122 97.8002 414.296 98.8126 414.445C99.0043 414.475 99.202 414.505 99.4117 414.523C99.8071 414.589 100.214 414.643 100.61 414.696C101.61 414.834 102.605 414.947 103.605 415.037C104.078 415.085 104.558 415.127 105.037 415.163L106.193 415.252C106.822 415.3 107.445 415.336 108.062 415.354C108.446 415.354 108.829 415.39 109.225 415.402C109.524 415.402 109.824 415.402 110.135 415.402C110.447 415.402 110.89 415.402 111.267 415.402C111.783 415.402 112.298 415.402 112.807 415.402H113.496C114.011 415.402 114.526 415.402 115.036 415.354H115.071C115.425 415.354 115.784 415.354 116.144 415.306C116.244 415.312 116.344 415.312 116.443 415.306C116.743 415.306 117.042 415.306 117.33 415.264H117.54L119.547 415.109C120.206 415.049 120.871 414.971 121.541 414.9L122.907 414.738C128.464 413.961 133.959 412.794 139.352 411.246C151.465 407.874 163.315 403.157 175.422 399.701C191.076 395.247 208.371 393.058 223.498 398.505V342.47H93.6067ZM223.468 165.121V55.0059C209.25 54.8521 195.071 56.5118 181.275 59.9445C148.392 68.1896 118.888 86.0727 93.6067 108.913V165.115H100.125V167.668H93.6067V254.651H223.468V167.674H126.885V165.121H223.468ZM390.268 127.926C382.132 127.639 374.045 125.068 366.73 121.098C352.742 113.504 341.569 101.78 329.084 91.8843C303.145 71.2747 270.974 58.8384 237.971 55.7532V165.121H423.355L423.816 164.637L390.268 127.926ZM407.156 124.936L425.062 144.547V119.794C419.065 120.536 413.811 122.299 407.18 124.912L407.156 124.936ZM425.062 431.139V342.47H386.907C386.805 342.093 386.703 341.711 386.583 341.328C386.697 341.711 386.793 342.093 386.901 342.47H237.995V406.595C239.409 407.641 240.805 408.741 242.189 409.859C243.681 411.055 245.154 412.317 246.634 413.554L248.126 414.786C248.839 415.384 249.557 415.982 250.282 416.544C251.72 417.708 253.172 418.856 254.638 419.988C255.362 420.586 256.105 421.124 256.842 421.686C268.54 430.612 280.881 438.668 293.763 445.787C296.651 447.382 299.564 448.938 302.504 450.457C304.463 451.455 306.433 452.448 308.41 453.41C311.382 454.857 314.377 456.252 317.396 457.596C345.233 470.067 374.669 478.625 404.861 483.024C411.567 484.013 418.298 484.79 425.056 485.356V431.133H425.655L425.062 431.139ZM237.995 167.674V254.651H425.086V167.674H237.995ZM237.995 257.204V339.917H425.086V257.204H237.995ZM439.607 119.687V147.298L462.462 122.27C454.89 121.05 447.272 120.179 439.607 119.657V119.687ZM439.607 257.233V339.917H621.576V257.204L439.607 257.233ZM620.911 437.704L621.552 342.47H439.607V486.307C451.328 486.798 463.067 486.658 474.773 485.888H474.977C480.568 485.537 486.133 485.027 491.673 484.358H491.799C521.351 480.925 550.248 473.229 577.586 461.512L620.911 437.704ZM656.664 270.824C655.981 269.215 655.268 267.619 654.543 266.041C653.189 263.051 651.757 260.145 650.284 257.239H636.085V339.917H671.982C671.964 316.503 666.027 292.587 656.682 270.794L656.664 270.824ZM636.085 342.5V424.412C646.198 414.738 654.741 403.671 660.893 391.02C668.292 375.785 671.676 359.289 671.952 342.488L636.085 342.5ZM636.085 233.132V254.657H648.954C645.061 247.247 640.771 240.052 636.103 233.102L636.085 233.132ZM512.676 135.914C511.73 135.555 510.783 135.19 509.831 134.837C499.785 131.135 489.519 128.056 479.092 125.618L444.118 163.925L443.448 164.637L443.897 165.127H568.372C551.036 153.217 532.347 143.401 512.694 135.884L512.676 135.914ZM572.021 167.704H442.159L439.607 170.036V254.651H461.977H462.013H621.6V213.665C607.164 196.239 590.501 180.777 572.039 167.674L572.021 167.704Z" fill="#48B1DD"/>
<path opacity="0.1" d="M79.0912 211.548V254.65H18.4829C18.4829 254.399 18.5248 254.142 18.5428 253.891C18.5967 253.204 18.6506 252.516 18.7106 251.834C18.7765 251.033 18.8483 250.226 18.9262 249.443C19.0041 248.66 19.088 247.703 19.1778 246.836C19.2677 245.969 19.3516 245.09 19.4534 244.223C19.5553 243.356 19.6451 242.489 19.7529 241.628C19.8608 240.767 19.9566 239.894 20.0705 239.033C20.1603 238.316 20.2562 237.604 20.352 236.887C20.4898 235.876 20.6336 234.86 20.7893 233.856C20.7893 233.706 20.8313 233.551 20.8552 233.407C21.9487 226.054 23.4385 218.765 25.3183 211.572L79.0912 211.548Z" fill="#48B1DD"/>
<path opacity="0.1" d="M18.2912 257.21H79.0912V339.917H22.7424C22.5926 340.766 22.4488 341.621 22.293 342.476H79.0912V409.178C78.9893 409.148 78.8995 409.112 78.8036 409.077C77.1981 408.443 75.6046 407.773 74.011 407.056L72.9926 406.595C71.3951 405.842 69.7976 405.045 68.2 404.204C67.6429 403.911 67.0858 403.606 66.5346 403.295C57.6658 398.337 49.609 392.054 42.6436 384.664C42.4399 384.467 42.2482 384.258 42.0445 384.066C41.074 383.014 40.1215 381.95 39.1989 380.862L38.1805 379.666C37.0902 378.333 36.0358 376.963 35.0114 375.576C34.8616 375.373 34.7178 375.17 34.5621 374.978C30.3958 369.213 26.9365 362.97 24.258 356.384C24.1741 356.186 24.1022 355.971 24.0244 355.786C23.2016 353.673 22.4728 351.541 21.8378 349.388C21.5622 348.485 21.2986 347.594 21.0709 346.656C20.9871 346.381 20.9152 346.112 20.8493 345.843C17.4465 332.587 17.0452 318.818 17.0452 305.144C17.0452 303.547 17.0452 301.945 17.0452 300.36C17.0452 294.83 17.1111 289.263 17.2069 283.703C17.2069 282.262 17.2668 280.827 17.2968 279.38C17.3806 275.709 17.5005 272.038 17.6562 268.367C17.6922 267.344 17.7401 266.328 17.794 265.312C17.794 264.726 17.824 264.14 17.8839 263.554C18.0276 261.425 18.1475 259.315 18.2912 257.21Z" fill="#48B1DD"/>
<path opacity="0.1" d="M139.322 180.129V254.651H93.6067V180.129H100.125V154.897H126.879V180.129H139.322Z" fill="#48B1DD"/>
<path opacity="0.1" d="M139.322 257.204H93.6125V339.912H139.322V257.204Z" fill="#48B1DD"/>
<path opacity="0.1" d="M93.6067 342.477H139.322V411.235C133.929 412.781 128.434 413.946 122.877 414.721L121.512 414.888C120.841 414.966 120.176 415.032 119.517 415.097C118.858 415.163 118.175 415.211 117.51 415.253H117.3C117.012 415.253 116.701 415.289 116.419 415.295H116.114C115.754 415.295 115.395 415.331 115.036 415.343C114.526 415.372 114.017 415.378 113.496 415.384C113.274 415.384 113.065 415.384 112.843 415.384C112.328 415.384 111.819 415.384 111.303 415.384H110.171C109.866 415.384 109.572 415.384 109.254 415.384L108.098 415.343C107.499 415.343 106.852 415.277 106.229 415.235L105.079 415.151L103.647 415.02C102.641 414.93 101.64 414.816 100.652 414.679L99.4536 414.511L98.8546 414.428C97.8541 414.272 96.8656 414.105 95.8592 413.914C95.1223 413.788 94.3915 413.633 93.6486 413.483L93.6067 342.477Z" fill="#48B1DD"/>
<path opacity="0.1" d="M425.086 171.327H387.392V254.644H425.086V171.327Z" fill="#48B1DD"/>
<path opacity="0.1" d="M425.092 257.204V339.917H237.995V304.241H337.651V325.287H387.392V257.204H425.092Z" fill="#48B1DD"/>
<path opacity="0.1" d="M425.685 431.156H425.086V485.416C418.336 484.846 411.607 484.071 404.897 483.09C374.69 478.676 345.242 470.1 317.397 457.608C309.357 453.996 301.481 450.054 293.769 445.781C280.887 438.658 268.545 430.603 256.842 421.68C253.903 419.432 251.001 417.132 248.138 414.78C246.155 413.148 244.184 411.474 242.189 409.847C240.805 408.729 239.409 407.629 237.995 406.577V342.476H386.895C386.793 342.093 386.691 341.711 386.584 341.334C386.697 341.711 386.805 342.093 386.907 342.476H425.086V431.121C425.29 431.127 425.487 431.145 425.685 431.156Z" fill="#48B1DD"/>
<path opacity="0.1" d="M523.394 165.121H498.832V157.504H509.843V134.813C510.797 135.16 511.748 135.517 512.694 135.884V157.504H523.394V165.121Z" fill="#48B1DD"/>
<path opacity="0.1" d="M582.57 254.65H461.989C461.989 254.65 461.989 254.65 462.031 254.68L461.977 254.65H439.607V171.333H445.946V232.917H474.911V196.445H498.838V167.68H523.4V196.469H547.327V232.94H582.57V254.65Z" fill="#48B1DD"/>
<path opacity="0.1" d="M439.607 257.204V339.918H582.57V257.204H439.607ZM621.378 437.28L621.576 371.809H582.57V342.512H439.607V486.307C451.328 486.799 463.067 486.659 474.773 485.889H474.977C480.568 485.538 486.133 485.028 491.673 484.358H491.799C521.351 480.925 550.248 473.23 577.586 461.512" fill="#48B1DD"/>
<path opacity="0.1" d="M638.625 342.477H671.976C671.682 359.272 668.304 375.768 660.911 391.002C654.759 403.66 646.21 414.727 636.109 424.395V371.78H638.625V342.477Z" fill="#48B1DD"/>
<path opacity="0.1" d="M671.994 339.917H638.625V270.794H656.682C666.027 292.587 671.964 316.503 671.994 339.917Z" fill="#48B1DD"/>
<path opacity="0.1" d="M425.092 194.49H404.897V220.612H425.092V194.49Z" fill="#48B1DD"/>
<path opacity="0.1" d="M425.092 248.636H404.897V254.651H425.092V248.636Z" fill="#48B1DD"/>
<path opacity="0.1" d="M425.092 257.204H404.897V274.752H425.092V257.204Z" fill="#48B1DD"/>
<path opacity="0.1" d="M425.092 302.781H404.897V328.903H425.092V302.781Z" fill="#48B1DD"/>
<path opacity="0.1" d="M425.092 356.928H404.897V383.05H425.092V356.928Z" fill="#48B1DD"/>
<path opacity="0.1" d="M425.086 431.121C425.29 431.121 425.487 431.121 425.685 431.157H425.086V437.225H404.897V411.073H425.086V431.121Z" fill="#48B1DD"/>
<path opacity="0.1" d="M425.086 465.207V485.386C418.336 484.816 411.607 484.041 404.897 483.06V465.207H425.086Z" fill="#48B1DD"/>
<path opacity="0.1" d="M324.543 337.998H237.995V339.917H324.543V337.998Z" fill="#48B1DD"/>
<path opacity="0.1" d="M324.543 342.471H237.995V349.825H324.543V342.471Z" fill="#48B1DD"/>
<path opacity="0.1" d="M324.543 373.932H237.995V385.758H324.543V373.932Z" fill="#48B1DD"/>
<path opacity="0.1" d="M324.537 409.865V421.692H256.842C253.903 419.451 250.999 417.152 248.132 414.792C246.149 413.16 244.184 411.486 242.183 409.865H324.537Z" fill="#48B1DD"/>
<path opacity="0.1" d="M324.537 445.793V457.608H317.39C309.359 453.992 301.485 450.048 293.769 445.775L324.537 445.793Z" fill="#48B1DD"/>
<path opacity="0.1" d="M491.817 265.222H474.779V282.226H491.817V265.222Z" fill="#48B1DD"/>
<path opacity="0.1" d="M122.919 185.994H105.882V202.998H122.919V185.994Z" fill="#48B1DD"/>
<path opacity="0.1" d="M122.919 225.491H105.882V242.495H122.919V225.491Z" fill="#48B1DD"/>
<path opacity="0.1" d="M122.919 264.988H105.882V281.993H122.919V264.988Z" fill="#48B1DD"/>
<path opacity="0.1" d="M122.919 304.479H105.882V321.484H122.919V304.479Z" fill="#48B1DD"/>
<path opacity="0.1" d="M122.919 343.977H105.882V360.981H122.919V343.977Z" fill="#48B1DD"/>
<path opacity="0.1" d="M122.919 383.475H105.882V400.479H122.919V383.475Z" fill="#48B1DD"/>
<path opacity="0.1" d="M556.858 265.222H539.82V282.226H556.858V265.222Z" fill="#48B1DD"/>
<path opacity="0.1" d="M491.817 307.164H474.779V324.168H491.817V307.164Z" fill="#48B1DD"/>
<path opacity="0.1" d="M556.858 307.164H539.82V324.168H556.858V307.164Z" fill="#48B1DD"/>
<path opacity="0.1" d="M491.817 349.101H474.779V366.105H491.817V349.101Z" fill="#48B1DD"/>
<path opacity="0.1" d="M556.858 349.101H539.82V366.105H556.858V349.101Z" fill="#48B1DD"/>
<path opacity="0.1" d="M491.817 391.044H474.779V408.048H491.817V391.044Z" fill="#48B1DD"/>
<path opacity="0.1" d="M556.858 391.044H539.82V408.048H556.858V391.044Z" fill="#48B1DD"/>
<path opacity="0.1" d="M491.817 432.986H474.779V449.991H491.817V432.986Z" fill="#48B1DD"/>
<path opacity="0.1" d="M556.858 432.986H539.82V449.991H556.858V432.986Z" fill="#48B1DD"/>
<path opacity="0.1" d="M474.779 485.888V474.923H491.811V484.328L474.779 485.888Z" fill="#48B1DD"/>
<path opacity="0.1" d="M20.7832 233.396V243.123H79.091V233.396H20.7832ZM26.5942 242.513H21.8376V233.993H26.6302L26.5942 242.513ZM32.3992 242.513H27.6066V233.993H32.3992V242.513ZM38.1923 242.513H33.3997V233.993H38.1923V242.513ZM43.9973 242.513H39.2107V233.993H44.0033L43.9973 242.513ZM49.7963 242.513H45.0037V233.993H49.7963V242.513ZM55.6013 242.513H50.8088V233.993H55.6013V242.513ZM61.4064 242.513H56.6138V233.993H61.4064V242.513ZM67.2054 242.513H62.4128V233.993H67.2054V242.513ZM73.0044 242.513H68.2118V233.993H73.0044V242.513ZM78.8034 242.513H74.0109V233.993H78.8034V242.513Z" fill="#48B1DD"/>
<path opacity="0.1" d="M20.7832 261.7V271.428H79.091V261.7H20.7832ZM26.5942 270.812H21.8376V262.316H26.6302L26.5942 270.812ZM32.3992 270.812H27.6066V262.316H32.3992V270.812ZM38.1923 270.812H33.3997V262.316H38.1923V270.812ZM43.9973 270.812H39.2107V262.316H44.0033L43.9973 270.812ZM49.7963 270.812H45.0037V262.316H49.7963V270.812ZM55.6013 270.812H50.8088V262.316H55.6013V270.812ZM61.4064 270.812H56.6138V262.316H61.4064V270.812ZM67.2054 270.812H62.4128V262.316H67.2054V270.812ZM73.0044 270.812H68.2118V262.316H73.0044V270.812ZM78.8034 270.812H74.0109V262.316H78.8034V270.812Z" fill="#48B1DD"/>
<path opacity="0.1" d="M20.7832 290.017V299.762H79.091V290.017H20.7832ZM26.5942 299.129H21.8376V290.626H26.6302L26.5942 299.129ZM32.3992 299.129H27.6066V290.626H32.3992V299.129ZM38.1923 299.129H33.3997V290.626H38.1923V299.129ZM43.9973 299.129H39.2107V290.626H44.0033L43.9973 299.129ZM49.7963 299.129H45.0037V290.626H49.7963V299.129ZM55.6013 299.129H50.8088V290.626H55.6013V299.129ZM61.4064 299.129H56.6138V290.626H61.4064V299.129ZM67.2054 299.129H62.4128V290.626H67.2054V299.129ZM73.0044 299.129H68.2118V290.626H73.0044V299.129ZM78.8034 299.129H74.0109V290.626H78.8034V299.129Z" fill="#48B1DD"/>
<path opacity="0.1" d="M20.7832 318.333V328.049H79.091V318.333H20.7832ZM26.5942 327.445H21.8376V318.937H26.6302L26.5942 327.445ZM32.3992 327.445H27.6066V318.937H32.3992V327.445ZM38.1923 327.445H33.3997V318.937H38.1923V327.445ZM43.9973 327.445H39.2107V318.937H44.0033L43.9973 327.445ZM49.7963 327.445H45.0037V318.937H49.7963V327.445ZM55.6013 327.445H50.8088V318.937H55.6013V327.445ZM61.4064 327.445H56.6138V318.937H61.4064V327.445ZM67.2054 327.445H62.4128V318.937H67.2054V327.445ZM73.0044 327.445H68.2118V318.937H73.0044V327.445ZM78.8034 327.445H74.0109V318.937H78.8034V327.445Z" fill="#48B1DD"/>
<path opacity="0.1" d="M21.0349 346.644C21.2686 347.558 21.5321 348.473 21.8077 349.376V347.253H26.6003V355.756H24.0363C24.1141 355.953 24.192 356.168 24.2699 356.353H79.0911V346.644H21.0349ZM32.4173 355.756H27.6247V347.253H32.4173V355.756ZM38.2103 355.756H33.4178V347.253H38.2103V355.756ZM44.0154 355.756H39.2108V347.253H44.0034L44.0154 355.756ZM49.8144 355.756H45.0218V347.253H49.8144V355.756ZM55.6194 355.756H50.8268V347.253H55.6194V355.756ZM61.4244 355.756H56.6318V347.253H61.4244V355.756ZM67.2235 355.756H62.4309V347.253H67.2235V355.756ZM73.0225 355.756H68.2299V347.253H73.0225V355.756ZM78.8215 355.756H74.0289V347.253H78.8215V355.756Z" fill="#48B1DD"/>
<path opacity="0.1" d="M34.574 374.96C34.7237 375.151 34.8675 375.367 35.0233 375.558H38.1924V379.641C38.5339 380.048 38.8693 380.455 39.2168 380.837V375.534H44.0094V384.066H42.0684C42.2601 384.263 42.4458 384.473 42.6675 384.664H79.1091V374.96H34.574ZM49.7964 384.066H45.0038V375.57H49.7964V384.066ZM55.6015 384.066H50.8089V375.57H55.6015V384.066ZM61.4065 384.066H56.6139V375.57H61.4065V384.066ZM67.2055 384.066H62.4129V375.57H67.2055V384.066ZM73.0045 384.066H68.212V375.57H73.0045V384.066ZM78.8036 384.066H74.011V375.57H78.8036V384.066Z" fill="#48B1DD"/>
<path opacity="0.1" d="M66.5586 403.271C67.1038 403.581 67.6609 403.868 68.224 404.179V403.88H73.0166V406.571L74.035 407.043V403.88H78.8276V409.052C78.9195 409.098 79.0159 409.134 79.1152 409.16V403.271H66.5586Z" fill="#48B1DD"/>
<path opacity="0.1" d="M461.989 254.651H462.025H461.989ZM425.086 431.115H425.685H425.086ZM386.584 341.328C386.697 341.711 386.793 342.094 386.901 342.47C386.805 342.094 386.703 341.711 386.584 341.328ZM461.989 254.633H462.025H461.989ZM100.149 165.104V167.657H126.909V165.104H100.149ZM425.086 431.115H425.685H425.086ZM386.584 341.328C386.697 341.711 386.793 342.094 386.901 342.47C386.805 342.094 386.703 341.711 386.584 341.328ZM461.989 254.633H462.025H461.989ZM425.086 431.097H425.685H425.086ZM386.584 341.328C386.697 341.711 386.793 342.094 386.901 342.47C386.805 342.094 386.703 341.711 386.584 341.328Z" fill="#48B1DD"/>
<path d="M286.532 282.004C286.532 282.004 284.172 281.675 284.172 278.243C284.172 274.811 282.483 268.402 282.483 268.402C282.483 268.372 281.021 257.239 279.002 255.469C276.983 253.7 274.389 243.308 274.389 243.308C274.389 243.308 273.946 237.67 273.041 236.456C272.137 235.242 270.914 232.271 269.111 228.032C267.308 223.793 259.79 220.857 259.79 220.857C259.79 220.857 246.197 212.989 242.345 210.424C241.995 210.213 241.667 209.966 241.368 209.688C240.697 208.809 237.774 208.791 237.774 208.791C237.468 206.866 237.175 204.654 237.079 202.651C237.079 202.436 237.079 202.22 237.049 202.005C241.344 199.471 244.579 195.476 246.161 190.753C246.233 190.525 246.293 190.286 246.358 190.059C246.616 189.975 246.853 189.837 247.054 189.656C247.255 189.475 247.416 189.254 247.527 189.007C247.874 188.236 247.88 187.333 248.311 186.615C248.815 185.766 249.773 185.312 250.528 184.672C252.433 183.058 252.924 180.337 252.834 177.862C252.775 175.859 252.451 173.838 252.577 171.847L252.613 171.345C252.649 171.046 252.691 170.747 252.745 170.46C253.038 168.977 253.679 167.578 254.039 166.107C254.398 164.636 254.434 162.98 253.595 161.713C252.367 159.853 249.809 159.483 247.563 159.291C245.017 159.076 242.74 159.357 241.111 157.246C240.348 156.143 239.49 155.109 238.547 154.155C238.211 153.844 234.952 151.859 234.952 151.728C231.771 150.257 228.166 149.982 224.798 150.951C223.108 151.441 221.515 152.242 219.802 152.643C216.105 153.515 211.852 152.571 208.713 154.681C206.963 155.877 205.915 157.779 204.933 159.632C204.134 161.159 203.323 162.683 202.5 164.206C201.176 166.711 199.828 169.258 199.271 172.032C199.154 172.636 199.082 173.248 199.056 173.862V173.892C199.056 174.113 199.056 174.334 199.056 174.556V174.837C199.056 175.046 199.056 175.249 199.092 175.434C199.127 175.62 199.121 175.68 199.139 175.805C199.157 175.931 199.187 176.212 199.223 176.403C199.259 176.594 199.331 176.929 199.403 177.192C199.433 177.306 199.475 177.414 199.511 177.521C199.571 177.724 199.643 177.922 199.721 178.119C199.762 178.221 199.804 178.328 199.852 178.43C199.942 178.639 200.05 178.843 200.158 179.028C200.206 179.112 200.242 179.189 200.29 179.267C200.457 179.545 200.641 179.813 200.841 180.068C202.123 181.665 204.01 182.681 205.406 184.176C205.406 184.236 205.406 184.295 205.406 184.349C205.406 184.517 205.406 184.678 205.406 184.845C205.48 188.179 206.369 191.444 207.996 194.357C209.622 197.269 211.937 199.741 214.739 201.557C214.739 201.784 214.769 202.017 214.781 202.244C214.898 204.019 214.876 205.8 214.715 207.572C214.471 207.285 214.166 207.056 213.822 206.903C213.478 206.75 213.103 206.676 212.726 206.687C212.469 206.674 212.211 206.696 211.96 206.752L211.906 206.711V206.764C210.588 207.087 208.964 208.457 207.413 212.349C207.413 212.349 202.692 217.658 199.098 217.437C195.503 217.216 186.403 222.962 186.403 222.962C186.403 222.962 177.525 228.713 175.62 234.573C174.555 237.895 173.278 241.147 171.798 244.307L160.823 266.877L158.798 284.784C158.798 284.784 159.918 292.748 159.696 293.962C159.475 295.176 164.303 306.123 164.303 306.123C164.303 306.123 180.257 334.099 186.775 335.534L187.242 335.205C187.521 335.351 187.817 335.461 188.123 335.534L189.464 334.589C189.545 335.642 189.511 336.701 189.363 337.746C188.464 340.509 189.698 358.535 191.268 362.069C192.837 365.603 192.28 411.934 192.28 411.934L192.058 416.023C192.058 416.023 192.058 416.155 192.112 416.382L192.058 417.351L192.22 417.434C192.388 418.732 192.333 420.048 192.058 421.327C191.495 423.12 191.268 428.191 191.268 428.191C191.268 428.191 186.781 456.818 188.907 462.57C191.034 468.322 192.843 474.624 192.843 474.624C192.843 474.624 195.09 481.798 192.951 483.024C190.812 484.25 184.732 486.307 185.984 489.296C187.122 492.058 191.441 499.46 192.082 500.543L192.028 501.111L191.148 510.635C191.29 511.893 191.632 513.12 192.16 514.27C193.125 516.345 195 518.497 198.564 518.264C199.163 518.222 199.858 518.151 200.529 518.061C207.053 517.188 215.087 514.282 215.087 514.282C214.67 514.018 214.287 513.702 213.949 513.344C213.628 513.034 213.374 512.662 213.202 512.25C213.03 511.839 212.944 511.397 212.948 510.952C213.044 509.218 209.791 500.955 208.982 498.922C208.856 498.629 208.791 498.462 208.791 498.462C208.791 498.462 216.207 490.725 214.973 483.867C214.973 483.867 206.766 479.084 209.467 476.459C212.169 473.834 216.998 466.295 216.998 466.295C216.998 466.295 217.219 438.104 216.998 433.895C216.767 430.973 216.906 428.034 217.411 425.147C217.501 424.711 217.609 424.286 217.723 423.868C221.459 424.425 225.231 424.71 229.009 424.723C230.387 424.723 231.789 424.723 233.203 424.639C233.203 425.038 233.221 425.468 233.257 425.931C233.568 432.914 234.149 445.159 234.623 449.709C235.294 456.232 239.002 473.81 239.002 473.81C239.002 473.81 231.927 478.342 240.236 489.511C240.236 489.511 240.236 493.559 239.685 494.145C239.096 496.06 238.622 498.009 238.265 499.98C237.917 502.085 237.774 504.214 238.337 505.32C239.685 507.962 247.772 507.747 247.772 507.747L247.97 507.711C249.497 507.554 251.04 507.701 252.509 508.143C253.979 508.585 255.346 509.314 256.531 510.288C259.604 512.752 271.268 511.669 277.582 510.886C280.056 510.575 281.71 510.288 281.71 510.288C281.79 510.009 281.818 509.717 281.794 509.427C281.728 507.879 280.512 504.483 272.268 501.451C272.268 501.451 264.516 496.25 264.624 491.718H264.462H263.564C264.217 491.682 264.636 491.718 264.636 491.718C264.636 491.718 261.599 480.656 262.839 479.76C264.079 478.863 260.365 466.606 260.365 466.606C260.365 466.606 258.238 446.038 258.124 444.597C258.129 443.361 258.317 442.132 258.681 440.95L258.124 429.673C258.124 429.673 258.016 425.925 258.124 424.705C258.106 423.646 258.02 422.59 257.867 421.542C257.813 421.123 257.759 420.687 257.699 420.257C260.604 419.521 262.491 418.839 262.491 418.839L262.156 379.587C264.624 374.804 265.079 364.311 265.068 356.867C265.068 352.084 264.852 348.544 264.852 348.544L268.225 343.05C268.225 343.05 269.003 336.473 267.769 335.032C267.224 334.38 267.47 333.705 267.919 333.149C268.152 332.964 268.399 332.796 268.656 332.646C268.656 332.646 268.62 332.592 268.578 332.515C268.814 332.318 269.064 332.14 269.327 331.983C269.327 331.983 268.129 330.129 269.201 329.346C270.208 330.027 271.106 330.542 271.789 330.96C271.741 331.397 271.693 331.648 271.693 331.648L271.981 331.05C272.64 331.421 273.041 331.648 273.041 331.648C273.041 331.648 278.325 321.143 278.211 319.594C278.097 318.046 281.806 311.522 281.806 311.522C281.806 311.522 282.255 308.096 284.28 306.662C286.305 305.227 285.849 294.829 285.849 294.829C285.849 294.829 286.412 289.412 287.76 287.2C289.108 284.988 286.532 282.004 286.532 282.004ZM185.433 277.394L185.535 279.9C184.935 278.937 184.504 278.243 184.504 278.243L185.433 277.394Z" fill="url(#paint0_linear)"/>
<path d="M273.329 327.11L272.035 332.611C272.035 332.611 261.671 327.331 259.802 320.623C257.933 313.914 262.929 311.367 262.929 311.367L272.586 315.451L273.329 327.11Z" fill="white"/>
<path opacity="0.1" d="M273.329 327.11L272.035 332.611C272.035 332.611 261.671 327.331 259.802 320.623C257.933 313.914 262.929 311.367 262.929 311.367L272.586 315.451L273.329 327.11Z" fill="black"/>
<path d="M215.165 514.319C215.165 514.319 205.579 517.834 198.99 518.277C195.491 518.51 193.652 516.369 192.705 514.307C192.188 513.16 191.855 511.939 191.717 510.689L192.573 501.213L193.029 496.166L207.029 492.537L209.012 498.588L209.198 499.048C209.995 501.069 213.188 509.29 213.092 511.006C213.088 511.446 213.173 511.881 213.342 512.287C213.51 512.693 213.76 513.061 214.074 513.368C214.396 513.73 214.762 514.049 215.165 514.319Z" fill="white"/>
<path d="M280.637 509.499C280.661 509.787 280.633 510.077 280.554 510.354C280.554 510.354 260.053 513.768 255.86 510.354C254.677 509.357 253.299 508.617 251.814 508.183C250.328 507.748 248.768 507.629 247.233 507.831C247.233 507.831 239.301 508.046 237.977 505.44C237.426 504.345 237.57 502.223 237.912 500.13C238.26 498.169 238.724 496.231 239.301 494.325L239.619 494.074L241.506 492.561L263.6 491.909H263.768C263.66 496.417 271.268 501.589 271.268 501.589C279.349 504.579 280.542 507.957 280.637 509.499Z" fill="white"/>
<path opacity="0.1" d="M280.637 509.499C280.658 509.787 280.628 510.076 280.548 510.354C280.548 510.354 260.053 513.768 255.86 510.354C254.678 509.357 253.301 508.618 251.816 508.184C250.332 507.749 248.773 507.629 247.239 507.831C247.239 507.831 239.301 508.046 237.983 505.439C237.432 504.339 237.57 502.223 237.912 500.13C240.967 500.435 245.789 501.194 247.682 503.006C250.546 505.762 255.398 508.512 258.376 508.728C260.706 508.877 274.647 509.32 280.637 509.499Z" fill="black"/>
<path opacity="0.1" d="M215.165 514.318C215.165 514.318 205.58 517.834 198.99 518.276C195.491 518.509 193.652 516.369 192.711 514.3C195.15 515.119 198.534 515.98 200.314 515.191C202.422 514.258 209.899 513.655 214.092 513.397C214.412 513.746 214.772 514.055 215.165 514.318Z" fill="black"/>
<path d="M229.387 231.004C221.479 227.937 211.306 217.802 213.847 213.067C214.411 211.872 214.746 210.582 214.835 209.264C214.998 207.475 215.022 205.676 214.907 203.883C214.729 200.947 214.375 198.024 213.847 195.13C213.847 195.13 238.534 195.686 237.097 199.315C236.677 200.379 236.611 202.227 236.725 204.296C236.839 206.364 237.139 208.702 237.45 210.681C237.881 213.396 238.313 215.464 238.313 215.464C238.313 215.464 236.803 217.575 235.916 217.689C235.03 217.802 240.733 235.374 229.387 231.004Z" fill="#CF6F80"/>
<path opacity="0.1" d="M209.18 499.048L208.994 499.252C201.614 490.343 192.687 501.446 192.687 501.446L192.556 501.213L193.011 496.166L207.011 492.537L208.994 498.588L209.18 499.048Z" fill="black"/>
<path opacity="0.1" d="M263.774 492.537C263.774 492.537 258.382 492.424 255.506 494.959C252.631 497.494 238.732 495.509 239.331 494.959C239.509 494.686 239.616 494.374 239.643 494.05L241.53 492.537L263.624 491.886C263.708 492.286 263.774 492.537 263.774 492.537Z" fill="black"/>
<path d="M218.364 422.577C217.962 423.568 217.657 424.595 217.453 425.644C216.954 428.518 216.815 431.442 217.04 434.35C217.261 438.535 217.04 466.583 217.04 466.583C217.04 466.583 212.301 474.062 209.659 476.699C207.017 479.336 215.051 484.071 215.051 484.071C216.249 490.887 208.988 498.588 208.988 498.588C201.608 489.679 192.681 500.788 192.681 500.788C192.681 500.788 187.829 492.418 186.619 489.428C185.409 486.439 191.357 484.37 193.448 483.156C195.539 481.943 193.346 474.786 193.346 474.786C193.346 474.786 191.579 468.514 189.482 462.792C187.386 457.07 191.795 428.586 191.795 428.586C191.795 428.586 192.022 423.528 192.568 421.764C192.843 420.491 192.897 419.181 192.729 417.89C192.693 417.453 192.651 417.088 192.622 416.843C192.592 416.598 192.568 416.484 192.568 416.484L192.651 416.341L195.647 410.769C195.647 410.769 219.801 419.067 218.364 422.577Z" fill="#48B1DD"/>
<path d="M263.774 491.879C263.774 491.879 258.382 491.765 255.506 494.27C252.631 496.776 238.732 494.821 239.331 494.27C239.93 493.72 239.883 489.649 239.883 489.649C231.729 478.54 238.684 474.032 238.684 474.032C238.684 474.032 235.042 456.543 234.383 450.056C233.922 445.524 233.353 433.344 233.047 426.391C232.915 423.401 232.837 421.345 232.837 421.345L239.499 420.005L240.356 419.832L256.423 416.615C256.423 416.615 256.866 419.605 257.166 422.05C257.315 423.094 257.399 424.147 257.417 425.201C257.31 426.397 257.417 430.14 257.417 430.14L257.963 441.362C257.606 442.539 257.423 443.762 257.417 444.992C257.525 446.421 259.616 466.881 259.616 466.881C259.616 466.881 263.252 479.09 262.012 479.969C260.772 480.848 263.774 491.879 263.774 491.879Z" fill="#48B1DD"/>
<path opacity="0.1" d="M237.097 199.315C236.677 200.379 236.611 202.227 236.725 204.296C233.418 206.283 229.617 207.299 225.757 207.227C221.898 207.155 218.137 205.998 214.907 203.889C214.729 200.951 214.375 198.026 213.847 195.13C213.847 195.13 238.534 195.674 237.097 199.315Z" fill="black"/>
<path d="M246.64 186.102C246.645 188.256 246.305 190.398 245.634 192.446C244.133 197.034 241.055 200.944 236.944 203.487C232.834 206.029 227.955 207.039 223.17 206.339C218.386 205.638 214.003 203.272 210.797 199.659C207.592 196.045 205.769 191.417 205.651 186.592C205.651 186.425 205.651 186.269 205.651 186.102C205.605 183.386 206.101 180.688 207.11 178.165C208.119 175.643 209.622 173.346 211.529 171.409C213.437 169.472 215.713 167.933 218.223 166.883C220.733 165.833 223.427 165.292 226.149 165.292C228.87 165.292 231.565 165.833 234.075 166.883C236.585 167.933 238.86 169.472 240.768 171.409C242.676 173.346 244.178 175.643 245.188 178.165C246.197 180.688 246.693 183.386 246.646 186.102H246.64Z" fill="#CF6F80"/>
<path opacity="0.1" d="M229.387 231.003C221.479 227.936 211.306 217.802 213.847 213.066C214.411 211.871 214.746 210.582 214.835 209.264L225.66 218.142L232.358 223.625L237.45 210.687C237.881 213.401 238.313 215.47 238.313 215.47C238.313 215.47 236.803 217.58 235.916 217.694C235.03 217.808 240.733 235.374 229.387 231.003Z" fill="black"/>
<path d="M257.381 270.244L248.341 421.812L236.551 422.583L206.023 334.698L211.031 230.358L212.085 208.313L225.66 219.44L232.364 224.923L237.606 211.608L247.353 220.086L257.381 270.244Z" fill="#48B1DD"/>
<path opacity="0.1" d="M218.364 422.577C217.962 423.568 217.657 424.595 217.453 425.644C208.874 424.322 200.542 421.725 192.735 417.937L192.573 417.854L192.627 416.891L192.657 416.389L195.653 410.816C195.653 410.816 219.801 419.067 218.364 422.577Z" fill="black"/>
<path opacity="0.1" d="M239.637 425.668C237.444 426.041 235.232 426.292 233.011 426.422C232.879 423.432 232.801 421.375 232.801 421.375L239.463 420.036L239.637 425.668Z" fill="black"/>
<path opacity="0.1" d="M257.13 422.08C252.87 423.187 246.293 424.43 240.404 423.653L240.32 419.862L256.387 416.646C256.387 416.646 256.83 419.605 257.13 422.08Z" fill="black"/>
<path opacity="0.1" d="M240.296 424.347C215.734 428.532 193.239 416.532 193.239 416.532L193.454 412.467C193.454 412.467 194.011 366.375 192.466 362.841C190.92 359.307 189.716 341.388 190.591 338.638C191.465 335.888 187.398 294.645 187.398 294.645L186.739 277.903L162.62 268.152L173.403 245.718C174.86 242.573 176.112 239.338 177.153 236.032C179.028 230.209 187.733 224.487 187.733 224.487C187.733 224.487 196.659 218.771 200.188 218.986C203.716 219.202 208.341 213.928 208.341 213.928C211.756 205.241 214.847 209.175 214.847 209.175C214.847 209.587 214.847 209.175 214.679 210.46C213.481 219.997 234.053 250.131 234.347 250.663L236.306 298.292L238.289 358.566L240.296 424.347Z" fill="black"/>
<path d="M239.637 424.347C215.075 428.532 192.573 416.532 192.573 416.532L192.795 412.466C192.795 412.466 193.352 366.374 191.801 362.841C190.249 359.307 189.051 341.388 189.932 338.638C190.812 335.887 186.739 294.644 186.739 294.644L186.074 277.903L161.943 268.115L172.726 245.682C174.18 242.536 175.432 239.301 176.476 235.996C178.346 230.173 187.056 224.451 187.056 224.451C187.056 224.451 195.982 218.735 199.505 218.95C203.027 219.165 207.658 213.892 207.658 213.892C211.079 205.204 214.847 209.139 214.847 209.139C214.847 209.551 214.488 209.737 214.679 210.424C217.315 219.674 233.394 250.095 233.688 250.627L235.671 298.256L237.654 358.53L239.637 424.347Z" fill="white"/>
<path opacity="0.1" d="M233.017 251.984C230.375 250.884 216.381 234.938 216.381 234.938V231.309C215.872 230.113 212.846 230.842 210.39 231.679L211.445 209.635L212.643 210.627C215.267 219.871 232.712 251.452 233.017 251.984Z" fill="black"/>
<path d="M233.682 250.663C231.034 249.563 217.04 233.617 217.04 233.617V229.987C216.531 228.792 213.505 229.521 211.049 230.358L212.109 208.313L213.308 209.306C215.938 218.55 233.389 250.137 233.682 250.663Z" fill="white"/>
<path opacity="0.1" d="M193.239 330.189C193.568 330.189 210.318 328.432 210.318 328.432C210.318 328.432 220.46 348.336 219.795 353.179C219.131 358.022 217.926 362.309 213.847 361.549C209.767 360.79 191.891 362.147 191.891 362.147L193.239 330.189Z" fill="black"/>
<path d="M192.574 328.868C192.903 328.868 209.653 327.11 209.653 327.11C209.653 327.11 219.789 347.02 219.13 351.858C218.471 356.695 217.255 360.987 213.182 360.228C209.108 359.469 191.226 360.826 191.226 360.826L192.574 328.868Z" fill="white"/>
<path d="M205.196 319.522C205.196 319.522 220.568 327.768 220.898 330.285C221.227 332.802 213.074 329.185 211.312 328.748C210.153 328.469 208.973 328.285 207.784 328.198L196.036 328.515L205.196 319.522Z" fill="#CF6F80"/>
<path opacity="0.1" d="M228.728 253.013C229.621 253.013 230.345 252.29 230.345 251.398C230.345 250.507 229.621 249.784 228.728 249.784C227.834 249.784 227.11 250.507 227.11 251.398C227.11 252.29 227.834 253.013 228.728 253.013Z" fill="black"/>
<path d="M228.728 252.355C229.621 252.355 230.345 251.632 230.345 250.74C230.345 249.849 229.621 249.126 228.728 249.126C227.834 249.126 227.11 249.849 227.11 250.74C227.11 251.632 227.834 252.355 228.728 252.355Z" fill="#3F3D56"/>
<path opacity="0.1" d="M231.705 322.895C232.598 322.895 233.323 322.172 233.323 321.28C233.323 320.389 232.598 319.666 231.705 319.666C230.812 319.666 230.088 320.389 230.088 321.28C230.088 322.172 230.812 322.895 231.705 322.895Z" fill="black"/>
<path d="M231.705 322.232C232.598 322.232 233.323 321.509 233.323 320.617C233.323 319.726 232.598 319.003 231.705 319.003C230.812 319.003 230.088 319.726 230.088 320.617C230.088 321.509 230.812 322.232 231.705 322.232Z" fill="#3F3D56"/>
<path opacity="0.1" d="M230.339 287.953C231.233 287.953 231.957 287.231 231.957 286.339C231.957 285.447 231.233 284.725 230.339 284.725C229.446 284.725 228.722 285.447 228.722 286.339C228.722 287.231 229.446 287.953 230.339 287.953Z" fill="black"/>
<path d="M230.339 287.296C231.233 287.296 231.957 286.573 231.957 285.682C231.957 284.79 231.233 284.067 230.339 284.067C229.446 284.067 228.722 284.79 228.722 285.682C228.722 286.573 229.446 287.296 230.339 287.296Z" fill="#3F3D56"/>
<path d="M267.626 327.864C267.626 327.864 268.728 329.514 267.626 330.285C266.523 331.057 267.733 332.922 267.733 332.922C267.733 332.922 264.984 334.53 266.194 335.977C267.404 337.424 266.637 343.959 266.637 343.959L263.33 349.424C263.33 349.424 263.528 352.946 263.54 357.705C263.54 365.131 263.103 375.57 260.682 380.329L261.018 419.378C261.018 419.378 249.438 423.599 239.745 422.314L238.307 359.654C238.307 359.654 240.404 324.121 241.177 317.305C241.629 313.766 241.813 310.199 241.728 306.632C241.728 306.632 241.398 295.966 240.29 291.015C240.29 291.015 239.092 269.569 238.972 263.631C238.918 260.791 239.068 252.504 239.236 244.624C239.421 236.008 239.631 227.883 239.631 227.883L237.444 210.616C237.444 210.616 239.631 210.394 240.29 211.273C240.585 211.549 240.906 211.795 241.248 212.009C245.023 214.556 258.358 222.388 258.358 222.388C258.358 222.388 265.739 225.318 267.506 229.515C269.273 233.712 270.501 236.69 271.358 237.886C272.215 239.082 272.682 244.702 272.682 244.702C272.682 244.702 275.222 255.046 277.205 256.797C279.188 258.549 280.638 269.694 280.638 269.694L263.115 283.446C263.115 283.446 261.575 306.321 261.246 307.206C260.916 308.091 267.626 327.864 267.626 327.864Z" fill="white"/>
<path d="M268.291 327.864C268.291 327.864 269.387 329.514 268.291 330.285C267.194 331.057 268.392 332.922 268.392 332.922C268.392 332.922 265.661 334.548 266.859 335.995C268.057 337.442 267.302 343.977 267.302 343.977L263.995 349.442C263.995 349.442 264.193 352.964 264.211 357.723C264.211 365.149 263.774 375.588 261.353 380.347L261.683 419.396C261.683 419.396 250.085 423.617 240.404 422.332L238.972 359.672C238.972 359.672 241.069 324.139 241.841 317.323C242.294 313.784 242.476 310.216 242.387 306.65C242.387 306.65 242.057 295.984 240.955 291.033C240.955 291.033 239.757 269.586 239.631 263.649C239.577 260.809 239.733 252.522 239.894 244.642C240.08 236.026 240.29 227.901 240.29 227.901L237.402 210.4C237.402 210.4 240.29 210.4 240.955 211.291C241.247 211.57 241.569 211.816 241.913 212.027C245.688 214.574 259.029 222.406 259.029 222.406C259.029 222.406 266.404 225.336 268.171 229.533C269.938 233.73 271.166 236.708 272.029 237.904C272.891 239.1 273.347 244.72 273.347 244.72C273.347 244.72 275.887 255.063 277.87 256.815C279.853 258.567 281.284 269.688 281.284 269.688L263.762 283.44C263.762 283.44 262.222 306.315 261.886 307.2C261.551 308.085 268.291 327.864 268.291 327.864Z" fill="white"/>
<path opacity="0.1" d="M247.305 232.977L248.887 237.581L240.56 245.952C240.745 237.342 240.955 229.21 240.955 229.21L238.067 211.71C238.067 211.71 240.955 211.71 241.62 212.601C241.911 212.879 242.233 213.123 242.578 213.33L249.659 233.719L247.305 232.977Z" fill="black"/>
<path d="M246.64 231.655L248.228 236.259L239.9 244.629C240.086 236.014 240.296 227.888 240.296 227.888L237.402 210.388C237.402 210.388 240.296 210.388 240.955 211.279C241.249 211.555 241.57 211.802 241.913 212.014L249 232.396L246.64 231.655Z" fill="white"/>
<path opacity="0.1" d="M246.64 186.102C246.645 188.256 246.305 190.398 245.634 192.446C245.52 192.463 245.405 192.458 245.294 192.43C245.183 192.403 245.078 192.353 244.987 192.284C244.831 186.903 242.177 181.851 238.912 177.552C237.995 176.254 236.884 175.104 235.617 174.144C234.336 173.184 232.743 172.734 231.148 172.882C229.351 173.127 227.763 174.347 225.948 174.503C223.552 174.7 221.407 173.044 219.029 172.96C218.062 172.969 217.108 173.184 216.231 173.59C215.354 173.997 214.574 174.585 213.943 175.316C212.693 176.791 211.765 178.509 211.217 180.362C210.275 183.171 209.762 186.106 209.695 189.067C209.665 190.742 209.503 192.84 207.946 193.45C208.063 192.219 207.923 190.977 207.534 189.802C207.145 188.628 206.517 187.547 205.687 186.628L205.651 186.592C205.651 186.425 205.651 186.269 205.651 186.102C205.605 183.386 206.101 180.688 207.11 178.165C208.119 175.643 209.622 173.346 211.529 171.409C213.437 169.472 215.713 167.933 218.223 166.883C220.733 165.833 223.427 165.292 226.149 165.292C228.87 165.292 231.565 165.833 234.075 166.883C236.585 167.933 238.86 169.472 240.768 171.409C242.676 173.346 244.178 175.643 245.188 178.165C246.197 180.688 246.693 183.386 246.646 186.102H246.64Z" fill="black"/>
<path d="M234.635 153.617C231.521 152.156 227.981 151.879 224.678 152.84C223.018 153.33 221.455 154.125 219.771 154.526C216.177 155.393 211.984 154.454 208.898 156.553C207.185 157.749 206.155 159.638 205.196 161.474L202.8 166.03C201.494 168.523 200.176 171.058 199.631 173.802C199.085 176.547 199.415 179.62 201.158 181.826C202.428 183.434 204.303 184.445 205.681 185.958C206.507 186.878 207.133 187.958 207.521 189.131C207.908 190.304 208.049 191.544 207.934 192.774C209.497 192.176 209.647 190.071 209.683 188.397C209.75 185.435 210.263 182.501 211.205 179.692C211.752 177.838 212.68 176.12 213.931 174.645C214.562 173.915 215.343 173.327 216.219 172.921C217.096 172.515 218.05 172.3 219.017 172.29C221.413 172.373 223.564 174.023 225.936 173.826C227.733 173.677 229.327 172.451 231.136 172.212C232.731 172.061 234.325 172.511 235.605 173.473C236.872 174.433 237.981 175.582 238.894 176.881C242.165 181.18 244.819 186.221 244.975 191.614C245.651 192.11 246.628 191.464 246.963 190.699C247.299 189.934 247.311 189.037 247.736 188.307C248.227 187.464 249.168 187.016 249.905 186.382C251.774 184.774 252.241 182.065 252.169 179.608C252.098 177.151 251.618 174.657 252.086 172.242C252.367 170.759 253.002 169.372 253.35 167.907C253.697 166.442 253.739 164.798 252.918 163.536C251.72 161.683 249.198 161.318 246.999 161.145C244.501 160.929 242.267 161.205 240.673 159.106C239.925 158.011 239.083 156.982 238.157 156.033C237.84 155.722 234.635 153.749 234.635 153.617Z" fill="#512E4E"/>
<path opacity="0.1" d="M169.521 279.703L163.261 268.151L161.278 285.975C161.278 285.975 162.38 293.891 162.159 295.105C161.937 296.318 166.676 307.2 166.676 307.2C166.676 307.2 182.33 335.026 188.722 336.461L210.318 321.06L204.591 313.801C204.591 313.801 202.608 313.03 202.111 313.801C202.111 313.801 191.477 295.541 190.375 294.22C189.273 292.898 189.488 290.262 189.488 290.262C189.488 290.262 187.835 288.504 188.386 286.854C188.937 285.203 185.193 279.482 185.193 279.482L188.608 276.295L169.521 279.703Z" fill="black"/>
<path d="M163.59 266.836L161.937 268.151L159.954 285.975C159.954 285.975 161.056 293.891 160.835 295.105C160.613 296.318 165.358 307.2 165.358 307.2C165.358 307.2 181.006 335.026 187.398 336.461L209 321.059L203.267 313.801C203.267 313.801 201.284 313.03 200.787 313.801C200.787 313.801 190.153 295.541 189.051 294.22C187.949 292.898 188.17 290.262 188.17 290.262C188.17 290.262 186.517 288.504 187.068 286.854C187.619 285.203 183.869 279.482 183.869 279.482L187.284 276.295L163.59 266.836Z" fill="white"/>
<path opacity="0.1" d="M266.194 336.658C267.392 338.111 266.637 344.634 266.637 344.634L263.33 350.099C263.33 350.099 263.528 353.627 263.54 358.38L257.981 360.114C257.478 360.271 256.945 360.305 256.427 360.214C255.908 360.124 255.419 359.911 255 359.593C254.581 359.275 254.244 358.862 254.017 358.388C253.791 357.914 253.681 357.392 253.697 356.867L254.656 326.01L267.626 330.96C266.523 331.726 267.733 333.603 267.733 333.603C267.733 333.603 264.984 335.205 266.194 336.658Z" fill="black"/>
<path d="M266.859 335.995C268.057 337.448 267.302 343.977 267.302 343.977L263.995 349.442C263.995 349.442 264.193 352.964 264.211 357.723L258.549 359.487C258.057 359.639 257.536 359.672 257.029 359.583C256.521 359.494 256.042 359.285 255.632 358.974C255.222 358.663 254.892 358.258 254.67 357.794C254.448 357.33 254.34 356.82 254.356 356.306L255.32 325.353L268.296 330.303C267.188 331.068 268.398 332.94 268.398 332.94C268.398 332.94 265.66 334.548 266.859 335.995Z" fill="white"/>
<path d="M271.154 321.287C271.154 321.287 270.273 326.901 268.069 327.23C265.864 327.559 264.876 336.312 262.677 336.001C260.479 335.69 261.934 327.864 262.012 326.345C262.09 324.827 259.616 318.537 261.467 317.108C263.318 315.679 269.177 317.108 269.177 317.108L271.154 321.287Z" fill="#CF6F80"/>
<path opacity="0.1" d="M275.845 278.052L280.002 269.682C280.002 269.682 281.656 276.061 281.656 279.469C281.656 282.877 283.968 283.212 283.968 283.212C283.968 283.212 286.502 286.202 285.166 288.378C283.83 290.554 283.291 295.971 283.291 295.971C283.291 295.971 283.729 306.309 281.746 307.738C279.763 309.167 279.349 312.581 279.349 312.581C279.349 312.581 275.707 319.068 275.821 320.611C275.935 322.153 270.753 332.599 270.753 332.599C270.753 332.599 273.287 319.618 258.52 314.01C258.52 314.01 258.406 309.603 259.508 308.396C260.61 307.188 262.33 306.638 261.251 300.533C260.173 294.429 260.94 287.134 260.94 285.669C260.94 284.205 264.247 275.069 264.247 275.069L275.845 278.052Z" fill="black"/>
<path d="M277.642 268.486L281.272 269.682C281.272 269.682 282.932 276.062 282.932 279.47C282.932 282.878 285.244 283.213 285.244 283.213C285.244 283.213 287.778 286.202 286.442 288.378C285.106 290.555 284.573 295.972 284.573 295.972C284.573 295.972 285.011 306.309 283.028 307.738C281.045 309.167 280.601 312.581 280.601 312.581C280.601 312.581 276.965 319.069 277.079 320.611C277.193 322.154 272.005 332.599 272.005 332.599C272.005 332.599 274.545 319.619 259.772 314.01C259.772 314.01 259.664 309.604 260.766 308.396C261.868 307.188 263.588 306.638 262.509 300.534C261.431 294.429 262.198 287.135 262.198 285.67C262.198 284.205 265.505 275.069 265.505 275.069L277.642 268.486Z" fill="white"/>
<path opacity="0.1" d="M197.456 485.446C197.456 485.446 203.243 481.817 207.041 484.453C210.839 487.09 197.456 485.446 197.456 485.446Z" fill="black"/>
<path opacity="0.1" d="M242.423 474.224C242.423 474.224 247.545 473.566 251.846 478.188C256.147 482.809 242.423 474.224 242.423 474.224Z" fill="black"/>
<g opacity="0.1">
<path opacity="0.1" d="M249.917 185.073C249.18 185.706 248.233 186.161 247.742 187.004C247.323 187.727 247.311 188.618 246.975 189.395C246.64 190.173 245.663 190.806 244.986 190.316C244.831 184.935 242.171 179.883 238.906 175.578C237.993 174.279 236.884 173.129 235.617 172.17C234.335 171.208 232.739 170.758 231.142 170.908C229.345 171.153 227.763 172.373 225.948 172.523C223.552 172.726 221.401 171.07 219.023 170.986C218.056 170.996 217.103 171.211 216.227 171.619C215.351 172.026 214.572 172.616 213.943 173.348C212.692 174.82 211.763 176.537 211.217 178.388C210.275 181.197 209.762 184.132 209.695 187.093C209.659 188.762 209.503 190.842 207.958 191.464C207.994 191.906 207.994 192.35 207.958 192.791C209.515 192.194 209.671 190.089 209.707 188.415C209.774 185.453 210.287 182.519 211.229 179.709C211.775 177.856 212.704 176.138 213.954 174.663C214.585 173.933 215.364 173.345 216.24 172.939C217.116 172.533 218.069 172.317 219.035 172.307C221.431 172.391 223.588 174.041 225.96 173.844C227.757 173.695 229.351 172.469 231.154 172.23C232.751 172.079 234.347 172.529 235.629 173.491C236.896 174.45 238.005 175.6 238.918 176.899C242.183 181.198 244.843 186.238 244.998 191.632C245.675 192.128 246.652 191.482 246.987 190.717C247.323 189.951 247.335 189.055 247.754 188.325C248.245 187.482 249.192 187.034 249.929 186.4C251.798 184.792 252.265 182.083 252.193 179.626C252.193 179.548 252.193 179.47 252.193 179.398C252.08 181.527 251.51 183.697 249.917 185.073Z" fill="black"/>
<path opacity="0.1" d="M205.693 184.648C204.315 183.136 202.434 182.125 201.17 180.523C200.106 179.104 199.498 177.397 199.427 175.626C199.238 177.839 199.858 180.045 201.17 181.838C202.434 183.446 204.315 184.457 205.693 185.97C207.016 187.449 207.81 189.325 207.952 191.303C208.043 190.099 207.891 188.889 207.503 187.746C207.115 186.602 206.499 185.549 205.693 184.648Z" fill="black"/>
<path opacity="0.1" d="M253.361 166.598C253.008 168.063 252.379 169.456 252.091 170.933C251.921 171.919 251.859 172.922 251.906 173.922C251.926 173.352 251.988 172.785 252.091 172.224C252.379 170.741 253.008 169.354 253.361 167.889C253.567 167.081 253.634 166.244 253.559 165.414C253.522 165.813 253.456 166.209 253.361 166.598Z" fill="black"/>
</g>
<path opacity="0.1" d="M89.5151 509.756C121.754 509.756 147.889 505.567 147.889 500.399C147.889 495.231 121.754 491.042 89.5151 491.042C57.2762 491.042 31.1414 495.231 31.1414 500.399C31.1414 505.567 57.2762 509.756 89.5151 509.756Z" fill="#48B1DD"/>
<path d="M91.3961 321.149H87.6399V405.555H91.3961V321.149Z" fill="#535461"/>
<path d="M115 405.297L114.766 409.1L114.431 414.481L114.293 416.717L113.963 422.098L113.819 424.334L113.484 429.715L109.698 490.743C109.533 493.369 108.372 495.833 106.451 497.635C104.531 499.437 101.994 500.44 99.3578 500.441H79.6723C77.0368 500.44 74.5009 499.436 72.5809 497.635C70.661 495.833 69.5014 493.368 69.3383 490.743L65.5701 429.674L65.2346 424.293L65.0968 422.056L64.7613 416.675L64.6236 414.439L64.2881 409.058L64.0485 405.255C64.0068 404.523 64.1155 403.791 64.3677 403.102C64.62 402.414 65.0105 401.784 65.5154 401.252C66.0203 400.719 66.6288 400.295 67.3037 400.006C67.9786 399.717 68.7056 399.568 69.4401 399.569H109.704C110.436 399.576 111.158 399.732 111.827 400.027C112.496 400.323 113.097 400.753 113.594 401.29C114.09 401.826 114.471 402.459 114.713 403.148C114.954 403.837 115.052 404.569 115 405.297Z" fill="#3F3D56"/>
<path d="M114.766 409.1L114.43 414.463H64.5994L64.2639 409.1H114.766Z" fill="#9D9CB5"/>
<path d="M114.293 416.699L113.963 422.068H65.0728L64.7373 416.699H114.293Z" fill="#9D9CB5"/>
<path d="M113.819 424.311L113.49 429.674H65.5462L65.2107 424.311H113.819Z" fill="#9D9CB5"/>
<path d="M58.5308 352.784C80.403 368.581 89.5329 393.286 89.5329 393.286C89.5329 393.286 63.1736 392.383 41.2955 376.587C19.4173 360.79 10.3054 336.091 10.3054 336.091C10.3054 336.091 36.6527 336.988 58.5308 352.784Z" fill="#48B1DD"/>
<path d="M10.2876 336.091C10.2876 336.091 37.6533 351.248 46.4297 363.797C55.2061 376.347 89.533 393.286 89.533 393.286" stroke="#535461" stroke-width="2" stroke-miterlimit="10"/>
<path d="M72.6511 320.964C84.5547 329.556 89.5329 343.003 89.5329 343.003C89.5329 343.003 75.1851 342.512 63.2756 333.921C51.366 325.329 46.3997 311.876 46.3997 311.876C46.3997 311.876 60.7415 312.366 72.6511 320.964Z" fill="#48B1DD"/>
<path d="M46.3997 311.876C46.3997 311.876 61.2926 320.127 66.0672 326.955C70.8419 333.783 89.5329 343.003 89.5329 343.003" stroke="#535461" stroke-width="2" stroke-miterlimit="10"/>
<path d="M106.816 342.321C93.1394 357.322 90.2458 376.927 90.2458 376.927C90.2458 376.927 109.53 372.204 123.195 357.196C136.86 342.189 139.765 322.59 139.765 322.59C139.765 322.59 120.493 327.319 106.816 342.321Z" fill="#48B1DD"/>
<path d="M139.777 322.596C139.777 322.596 121.961 337.974 117.432 348.568C112.903 359.163 90.2458 376.927 90.2458 376.927" stroke="#535461" stroke-width="2" stroke-miterlimit="10"/>
<path d="M608.876 337.041C608.876 337.041 598.985 287.93 602.771 281.819C602.771 281.819 602.909 276.139 602.681 268.899C602.681 268.624 602.681 268.349 602.681 268.068C603.347 268.511 604.042 268.91 604.76 269.263C608.249 271.052 612.253 271.568 616.083 270.722L613.087 267.392C612.368 266.597 611.619 265.736 611.464 264.683C611.308 263.631 611.739 262.692 612.111 261.754C614.956 254.579 615.106 245.557 609.625 240.08C604.994 235.476 603.867 229.533 598.841 225.33C595.169 222.251 593.15 217.736 591.245 213.372C589.633 209.683 588.01 205.964 587.087 202.053C586.369 198.998 586.081 195.835 585.093 192.852C584.104 189.868 582.253 186.968 579.359 185.635C578.329 185.163 577.185 184.894 576.244 184.266C575.01 183.435 574.267 182.084 573.375 180.9C568.84 174.921 553.653 178.442 546.464 180.87C544.51 181.481 542.7 182.482 541.144 183.812L541.21 183.704C541.264 183.614 541.33 183.525 541.39 183.435C540.603 184.07 539.924 184.827 539.377 185.677C538.329 187.333 537.892 189.264 537.017 191.058C535.963 193.181 530.098 199.106 532.62 201.491C532.796 201.652 532.999 201.781 533.219 201.874C534.166 202.267 535.208 202.371 536.214 202.173L536.106 202.43C535.245 204.535 534.803 206.787 534.806 209.061C534.806 218.884 542.924 226.848 552.946 226.848C554.83 226.85 556.704 226.562 558.5 225.993C558.542 226.221 558.578 226.448 558.619 226.675C558.619 226.765 558.649 226.854 558.661 226.944L558.344 227.386C558.328 227.359 558.31 227.333 558.29 227.309L548.885 240.427C547.447 241.437 539.168 247.416 538.7 251.9C538.209 256.809 537.718 262.555 537.718 262.555L537.652 263.787C537.241 264.129 536.76 264.379 536.243 264.518C535.726 264.658 535.185 264.683 534.657 264.594C531.721 264.115 531.721 275.356 531.721 275.356C531.721 275.356 529.768 277.15 528.426 275.595C527.084 274.041 523.538 279.308 523.538 279.308L501.312 280.265L500.803 280.295L499.605 276.594C499.476 276.203 499.198 275.879 498.831 275.692C498.464 275.505 498.038 275.47 497.646 275.595C497.553 275.626 497.463 275.664 497.376 275.709L497.292 275.757L497.137 275.864L497.059 275.936C497.016 275.975 496.976 276.017 496.939 276.061L496.867 276.145L496.831 276.181C496.693 276.372 496.601 276.593 496.564 276.825C496.526 277.058 496.544 277.296 496.615 277.52L497.646 280.695C493.356 281.556 488.971 283.984 492.548 290.668L474.42 287.326L480.285 292.241L510.562 298.477C510.16 299.194 510.424 300.235 511.676 301.699C517.068 308.019 526.893 309.735 530.846 310.178C531.891 312.509 533.195 314.715 534.734 316.755L534.393 323.05C534.393 323.05 524.382 371.038 522.549 373.471C523.475 372.425 524.322 371.312 525.083 370.141C522.178 380 518.116 393.495 517.05 395.516C515.336 398.745 513.749 411.809 515.702 412.646C516.301 412.903 518.014 412.777 520.458 412.592V413.674L520.351 454.684C520.351 454.684 520.842 479.838 519.494 482.235C518.146 484.633 517.787 489.661 517.787 489.661C517.787 489.661 512.395 499.58 508.124 503.568C508.094 503.599 508.062 503.627 508.028 503.652L507.896 502.719C507.896 502.719 502.762 509.189 491.403 508.824C491.403 508.824 484.568 513.26 494.704 513.499C504.841 513.739 517.787 513.141 517.787 513.141C517.787 513.141 526.827 499.389 534.399 501.183V511.604H536.717V501.015C537.793 500.309 538.713 499.392 539.422 498.32C540.132 497.248 540.616 496.043 540.845 494.779C541.043 493.476 540.898 492.144 540.423 490.914C539.948 489.684 539.16 488.599 538.137 487.766C537.677 487.351 537.309 486.846 537.054 486.282C536.799 485.718 536.664 485.108 536.657 484.489L536.574 484.561C536.574 484.352 536.52 484.137 536.496 483.915C535.831 478.534 534.998 467.431 537.939 459.216C541.971 447.952 543.193 432.263 540.258 422.924C539.311 419.938 538.533 416.902 537.927 413.83C537.856 413.441 537.79 413.07 537.73 412.723C539.736 412.994 541.723 413.394 543.679 413.919C550.478 415.791 565.353 416.137 578.053 416.036C578.083 416.383 578.119 416.747 578.161 417.112C578.388 419.647 578.861 422.154 579.575 424.598C581.169 429.381 581.899 450.469 581.899 450.469C581.899 450.469 583.954 467.808 582.834 474.863C582.235 478.785 581.636 482.725 581.294 486.684V486.761C581.294 486.761 577.928 496.328 575.465 501.523C575.406 501.655 575.34 501.786 575.28 501.912C574.623 501.972 573.977 502.114 573.357 502.337C573.357 502.337 570.056 508.913 566.767 510.002C563.478 511.09 564.568 514.671 572.015 513.356C579.461 512.04 590.706 510.964 590.706 510.964L591.191 504.256L593.48 501.398L592.88 508.088L595.319 507.61L594.995 499.473L598.739 494.797C598.739 494.797 603.262 490.779 596.541 482.875V483.048C596.469 482.935 596.403 482.815 596.325 482.702V482.666C595.211 480.944 594.324 477.733 595.948 472.035C598.883 461.739 600.591 452.394 600.591 452.394C600.591 452.394 607.144 427.36 599.267 415.516H599.614C598.807 413.849 598.236 412.078 597.919 410.254C597.879 410.039 597.843 409.818 597.811 409.59C603.64 409.256 609.361 408.203 614.028 405.931C614.01 405.907 611.2 346.5 608.876 337.041ZM534.872 295.607V295.726L533.674 295.786L534.872 295.607ZM530.763 296.175C530.566 296.218 530.381 296.306 530.223 296.432C529.708 297.159 529.385 298.004 529.283 298.889L527.414 298.471C527.414 298.471 526.102 298.19 524.215 297.873L523.322 296.976C525.778 296.773 528.33 296.474 530.763 296.175Z" fill="url(#paint1_linear)"/>
<path d="M592.605 499.556L591.892 508.028L594.282 507.55L593.923 498.36L592.605 499.556Z" fill="#1D2366"/>
<path d="M538.071 459.329C535.19 467.52 536.004 478.576 536.651 483.945C536.891 485.93 537.113 487.138 537.113 487.138C537.113 487.138 532.805 496.931 532.446 497.302C532.086 497.673 519.769 505.176 519.769 505.176L511.161 510.193C511.161 510.193 502.426 506.372 506.614 505.057C507.469 504.714 508.24 504.19 508.872 503.52C513.066 499.544 518.332 489.661 518.332 489.661C518.332 489.661 518.691 484.644 520.009 482.259C521.327 479.873 520.848 454.803 520.848 454.803L520.95 413.937V408.609L537.334 408.729C537.438 410.538 537.674 412.336 538.041 414.11C538.629 417.172 539.391 420.198 540.324 423.174C543.211 432.495 542.013 448.107 538.071 459.329Z" fill="#FFB0B1"/>
<path opacity="0.1" d="M537.113 487.138C537.113 487.138 532.805 496.931 532.446 497.302C532.086 497.673 519.769 505.176 519.769 505.176L511.161 510.193C511.161 510.193 502.426 506.372 506.614 505.057C507.469 504.714 508.24 504.19 508.872 503.52L509.244 506.133L512.113 506.014L536.675 483.957C536.891 485.93 537.113 487.138 537.113 487.138Z" fill="black"/>
<path d="M536.813 484.514L512.113 506.72L509.244 506.839L508.645 502.654C508.645 502.654 503.625 509.099 492.47 508.741C492.47 508.741 485.772 513.159 495.699 513.398C505.625 513.637 518.302 513.039 518.302 513.039C518.302 513.039 527.156 499.288 534.567 501.081V511.467H536.843V500.986C537.902 500.275 538.805 499.357 539.499 498.289C540.193 497.22 540.663 496.022 540.881 494.768C541.078 493.475 540.939 492.154 540.476 490.931C540.013 489.708 539.243 488.624 538.239 487.784C537.791 487.365 537.433 486.858 537.188 486.296C536.943 485.733 536.815 485.127 536.813 484.514Z" fill="#1D2366"/>
<path d="M594.881 472.1C593.288 477.78 594.156 480.979 595.247 482.695V482.731C596.645 484.85 597.618 487.219 598.11 489.709L598.206 490.247L586.967 506.599L580.869 508.991C580.869 508.991 571.062 505.649 572.853 504.692C573.303 504.459 574.004 503.215 574.806 501.499C577.203 496.327 580.509 486.785 580.509 486.785V486.707C580.857 482.767 581.408 478.839 582.019 474.928C583.115 467.891 581.103 450.618 581.103 450.618C581.103 450.618 580.384 429.614 578.826 424.836C578.123 422.408 577.655 419.917 577.43 417.399C577.107 414.409 577.035 411.946 577.035 411.946C577.035 411.946 583.493 402.977 595.33 412.663C596.277 413.436 597.11 414.337 597.805 415.342C605.982 426.953 599.398 452.531 599.398 452.531C599.398 452.531 597.751 461.834 594.881 472.1Z" fill="#FFB0B1"/>
<path opacity="0.1" d="M598.224 490.247L586.986 506.599L580.887 508.991C580.887 508.991 571.08 505.649 572.871 504.692C573.321 504.459 574.022 503.215 574.824 501.499C578.976 501.463 581.127 505.41 581.127 505.41L586.387 504.572C586.387 504.572 593.324 490.964 594.881 490.133C596.439 489.302 595.121 483.921 595.121 483.921V482.552C595.163 482.6 595.199 482.653 595.247 482.701V482.737C596.645 484.856 597.618 487.226 598.11 489.715L598.224 490.247Z" fill="black"/>
<path d="M581.486 505.762C581.486 505.762 578.491 500.273 572.751 502.3C572.751 502.3 569.523 508.877 566.294 509.942C563.065 511.006 564.143 514.593 571.44 513.284C578.736 511.974 589.735 510.892 589.735 510.892L590.214 504.202L597.631 494.773C597.631 494.773 602.052 490.773 595.474 482.898V484.268C595.474 484.268 596.792 489.649 595.235 490.48C593.677 491.311 586.764 504.925 586.764 504.925L581.486 505.762Z" fill="#1D2366"/>
<path opacity="0.1" d="M537.352 408.717C537.456 410.526 537.692 412.324 538.059 414.098C531.314 413.112 525.053 413.602 520.95 413.925V408.598L537.352 408.717Z" fill="black"/>
<path opacity="0.1" d="M598.47 416.831C598.47 416.831 588.884 417.297 577.454 417.393C577.131 414.403 577.059 411.94 577.059 411.94C577.059 411.94 583.517 402.971 595.354 412.657C596.301 413.43 597.134 414.332 597.829 415.336C598.014 415.846 598.228 416.345 598.47 416.831Z" fill="black"/>
<path d="M598.47 415.755C598.47 415.755 556.487 417.782 543.69 414.201C530.894 410.619 518.212 413.722 516.301 412.891C514.39 412.06 515.941 399.044 517.619 395.821C519.296 392.598 528.498 360.007 528.498 360.007L537.352 313.933L546.68 311.368L547.339 311.182L563.592 306.71L575.501 303.428C575.501 303.428 599.183 395.702 597.152 402.506C596.414 405.111 596.295 407.852 596.804 410.512C597.115 412.328 597.675 414.092 598.47 415.755Z" fill="#1D2366"/>
<path d="M506.488 282.423C506.488 282.423 498.101 291.391 504.451 296.39C510.801 301.388 514.977 296.868 514.977 296.868L506.488 282.423Z" fill="#C7DAF5"/>
<path opacity="0.1" d="M506.488 282.423C506.488 282.423 498.101 291.391 504.451 296.39C510.801 301.388 514.977 296.868 514.977 296.868L506.488 282.423Z" fill="black"/>
<path d="M574.249 223.458C574.249 223.458 573.267 224.391 571.787 225.766C569.678 227.733 566.557 230.609 563.789 233.018C559.955 236.349 556.792 238.794 557.924 236.707C559.057 234.621 558.841 230.986 558.278 227.584C558.236 227.356 558.2 227.129 558.158 226.908C557.692 224.409 557.074 221.941 556.307 219.518C556.307 219.518 562.501 211.53 565.928 208.379C567.204 207.183 568.097 206.693 568.151 207.524C568.21 208.642 569.049 211.111 570.092 213.73C570.122 213.814 570.152 213.892 570.187 213.975C570.882 215.769 571.667 217.611 572.356 219.201C573.41 221.64 574.249 223.458 574.249 223.458Z" fill="#FFB0B1"/>
<path opacity="0.1" d="M570.187 213.975C569.605 217.1 568.193 220.011 566.098 222.405C564.003 224.799 561.302 226.587 558.278 227.583C557.802 224.854 557.143 222.159 556.307 219.518C556.307 219.518 567.971 204.481 568.151 207.524C568.193 208.678 569.103 211.237 570.187 213.975Z" fill="black"/>
<path opacity="0.1" d="M557.116 231.602L558.625 229.479C558.625 229.479 559.626 235.566 563.304 232.882C566.983 230.197 567.162 253.085 567.162 253.085L563.214 311.996L534.687 310.292L535.495 281.826L538.724 267.476L546.71 246.615L551.461 239.721L557.116 231.602Z" fill="black"/>
<path d="M567.162 253.448L563.568 306.715L563.19 312.36L547.285 311.409L546.686 311.373L534.704 310.656L535.513 282.184L538.742 267.834L546.728 246.973L551.478 240.079L557.134 231.93L558.643 229.813C558.643 229.813 559.644 235.9 563.322 233.216L563.4 233.162C566.994 230.89 567.162 253.448 567.162 253.448Z" fill="#1D2366"/>
<path d="M539.143 262.848C539.143 262.848 537.712 265.837 534.836 265.353C531.961 264.869 531.967 276.115 531.967 276.115C531.967 276.115 530.055 277.909 528.737 276.354C527.42 274.8 523.945 280.055 523.945 280.055L502.175 281.012C502.175 281.012 511.862 285.43 509.963 298.799C509.963 298.799 542.852 296.767 543.93 293.663C545.008 290.56 539.143 262.848 539.143 262.848Z" fill="white"/>
<path opacity="0.03" d="M539.143 262.848C539.143 262.848 537.712 265.837 534.836 265.353C531.961 264.869 531.967 276.115 531.967 276.115C531.967 276.115 530.055 277.909 528.737 276.354C527.42 274.8 523.945 280.055 523.945 280.055L502.175 281.012C502.175 281.012 511.862 285.43 509.963 298.799C509.963 298.799 542.852 296.767 543.93 293.663C545.008 290.56 539.143 262.848 539.143 262.848Z" fill="black"/>
<path d="M475.875 288.037L481.614 292.928L528.857 302.835L522.998 296.868L475.875 288.037Z" fill="white"/>
<path d="M557.205 233.485C556.421 234.681 554.174 240.803 552.299 246.148C550.736 250.603 549.43 254.519 549.43 254.519C549.43 254.519 546.38 274.333 544.823 277.915C543.265 281.496 544.11 295.463 544.11 295.463L538.305 329.956C538.305 329.956 535.675 347.744 531.613 358.368C527.605 368.825 523.142 373.728 523.004 373.884C524.802 371.456 534.596 323.66 534.596 323.66L537.831 263.38C537.831 263.38 538.305 257.652 538.784 252.755C539.263 247.858 548.968 241.174 548.968 241.174L558.326 227.895C559.266 229.15 558.637 231.338 557.205 233.485Z" fill="white"/>
<path d="M532.805 310.955C532.805 310.955 519.027 310.357 512.353 302.357C505.679 294.357 527.779 299.165 527.779 299.165L533.524 300.48L532.805 310.955Z" fill="#FFB0B1"/>
<path opacity="0.1" d="M597.152 402.511C596.414 405.116 596.295 407.857 596.804 410.517C581.773 411.581 565.694 407.527 565.694 407.527C562.699 410.278 554.809 414.331 554.809 414.331L550.508 361.118C547.758 353.943 546.68 316.354 546.68 316.354C546.68 316.354 546.925 314.386 547.279 311.439C547.279 311.367 547.279 311.289 547.309 311.218C548.381 302.984 550.508 287.529 551.55 285.442C552.988 282.572 547.129 274.937 547.129 274.937L549.795 252.247L550.118 249.508C555.738 247.003 560.045 239.003 560.045 239.003L563.352 233.222C566.946 230.92 567.132 253.478 567.132 253.478L563.538 306.745L575.447 303.463C575.447 303.463 599.182 395.707 597.152 402.511Z" fill="black"/>
<path d="M612.578 406.188C596.193 414.308 566.413 406.786 566.413 406.786C563.418 409.537 555.528 413.59 555.528 413.59L551.221 360.377C548.477 353.203 547.399 315.613 547.399 315.613C547.399 315.613 550.861 287.565 552.299 284.701C552.718 283.864 552.515 282.62 552.018 281.281C549.573 274.907 548.674 268.045 549.394 261.258L550.544 251.506L550.861 248.773C556.487 246.262 560.794 238.262 560.794 238.262L563.789 233.025L569.301 223.375L571.913 218.807L572.356 219.207L575.741 222.268C575.741 222.268 577.179 223.464 579.335 225.258C584.026 229.204 592.131 236.152 596.313 240.403C599.991 244.146 601.154 258.704 601.489 269.664C601.711 276.881 601.579 282.537 601.579 282.537C597.871 288.629 607.57 337.544 607.57 337.544C609.828 346.996 612.578 406.188 612.578 406.188Z" fill="white"/>
<path opacity="0.03" d="M581.126 238.142C581.126 238.142 569.882 259.505 571.188 267.625C572.494 275.744 576.208 284.934 574.417 287.08C573.801 287.893 573.006 288.554 572.092 289.009C571.179 289.464 570.172 289.702 569.151 289.705C567.354 289.825 562.561 293.167 562.561 293.526C562.561 293.884 558.134 293.884 554.174 295.558C550.214 297.233 544.367 298.183 544.367 298.183C544.367 298.183 532.985 297.825 531.924 298.901C530.864 299.977 529.774 306.416 532.044 311.552C534.315 316.688 536.837 320.521 538.742 321.22C540.647 321.92 552.736 317.878 562.543 316.921C572.35 315.965 582.995 308.21 582.995 308.21C582.995 308.21 594.719 304.025 596.774 296.987C598.829 289.95 594.264 251.272 594.264 251.272C594.264 251.272 590.813 233.245 581.126 238.142Z" fill="black"/>
<path opacity="0.03" d="M579.689 236.348C579.689 236.348 568.444 257.717 569.762 265.831C571.08 273.944 574.782 283.14 572.985 285.293C572.372 286.107 571.578 286.768 570.665 287.223C569.752 287.678 568.746 287.916 567.725 287.917C565.928 288.037 561.136 291.379 561.136 291.738C561.136 292.097 556.708 292.097 552.748 293.765C548.789 295.433 542.942 296.39 542.942 296.39C542.942 296.39 531.559 296.031 530.505 297.107C529.451 298.183 528.348 304.629 530.625 309.759C532.901 314.889 535.417 318.727 537.322 319.427C539.227 320.126 551.317 316.084 561.124 315.134C570.93 314.183 581.576 306.416 581.576 306.416C581.576 306.416 593.294 302.231 595.325 295.2C597.356 288.168 592.815 249.478 592.815 249.478C592.815 249.478 589.376 231.458 579.689 236.348Z" fill="black"/>
<path d="M580.773 237.066C580.773 237.066 569.528 258.435 570.846 266.549C572.164 274.662 575.867 283.858 574.075 286.005C573.462 286.821 572.667 287.483 571.753 287.94C570.839 288.396 569.831 288.634 568.809 288.635C567.012 288.755 562.22 292.097 562.22 292.45C562.22 292.803 557.799 292.809 553.833 294.483C549.867 296.157 544.026 297.108 544.026 297.108C544.026 297.108 532.643 296.749 531.583 297.825C530.523 298.901 529.432 305.347 531.703 310.477C533.973 315.607 536.496 319.445 538.401 320.145C540.306 320.844 552.395 316.802 562.202 315.846C572.008 314.889 582.654 307.134 582.654 307.134C582.654 307.134 594.378 302.949 596.433 295.912C598.487 288.874 593.952 250.196 593.952 250.196C593.952 250.196 590.454 232.2 580.773 237.066Z" fill="white"/>
<path opacity="0.1" d="M580.528 294.381C580.528 294.381 571.542 292.588 574.669 295.577C577.796 298.567 577.778 301.185 581.606 301.066C585.434 300.946 580.528 294.381 580.528 294.381Z" fill="black"/>
<path opacity="0.1" d="M595.714 358.703C595.714 358.703 591.652 361.447 599.422 367.773C607.192 374.099 595.714 358.703 595.714 358.703Z" fill="black"/>
<path opacity="0.1" d="M587.962 381.262C587.962 381.62 586.524 394.415 591.904 397.614C597.284 400.813 587.962 381.262 587.962 381.262Z" fill="black"/>
<path d="M502.546 280.982C498.209 281.132 488.839 282.453 493.698 291.499C497.993 299.505 505.212 294.154 509.274 290.094C508.283 286.309 505.875 283.048 502.546 280.982Z" fill="#FFB0B1"/>
<path d="M509.328 290.023L509.509 289.837L509.328 290.023Z" fill="#FFB0B1"/>
<path opacity="0.1" d="M579.335 225.622C574.734 228.761 570.876 231.41 570.122 231.96C568.061 233.485 564.131 242.435 561.597 247.003C559.578 250.68 553.018 251.625 550.544 251.858L550.861 249.126C556.487 246.615 560.794 238.615 560.794 238.615L571.913 219.159L575.741 222.633C575.741 222.633 577.179 223.829 579.335 225.622Z" fill="black"/>
<path d="M579.335 225.264C574.734 228.403 570.876 231.052 570.122 231.608C568.061 233.126 564.131 242.077 561.597 246.645C559.578 250.322 553.018 251.267 550.544 251.5L550.861 248.767C556.487 246.256 560.794 238.256 560.794 238.256L571.913 218.801L575.741 222.263C575.741 222.263 577.179 223.446 579.335 225.264Z" fill="#DCE7FF"/>
<path d="M570.481 210.029C570.484 213.619 569.393 217.124 567.354 220.08C564.946 223.576 561.362 226.094 557.252 227.178C553.143 228.262 548.781 227.839 544.956 225.988C541.132 224.136 538.1 220.977 536.41 217.085C534.719 213.193 534.483 208.825 535.743 204.773C537.004 200.722 539.678 197.256 543.28 195.004C546.882 192.752 551.173 191.863 555.376 192.499C559.578 193.135 563.413 195.253 566.185 198.47C568.956 201.686 570.48 205.787 570.481 210.029Z" fill="#FFB0B1"/>
<path opacity="0.1" d="M601.489 269.67C599.056 268.176 597.075 266.052 595.756 263.524C594.755 261.551 594.09 259.273 592.383 257.873C590.843 256.618 588.789 256.313 586.872 255.751C580.569 253.891 575.285 248.152 575.088 241.599C574.992 238.513 575.956 235.434 575.519 232.379C575.27 230.65 574.582 229.013 573.518 227.626C572.99 226.962 572.411 226.34 571.787 225.766C570.948 224.977 570.068 224.212 569.301 223.375C568.818 222.856 568.396 222.285 568.043 221.671C567.758 221.168 567.527 220.637 567.354 220.086C566.156 216.427 567.246 212.086 565.928 208.385L565.856 208.182C565.359 206.867 564.346 205.551 562.939 205.45C561.531 205.348 560.327 206.514 558.985 207.034C556.175 208.122 553.144 206.269 550.801 204.379C548.459 202.49 545.817 200.332 542.84 200.75C540.869 201.031 539.311 202.37 537.496 203.064C537.086 203.222 536.663 203.344 536.232 203.429C537.768 199.605 540.59 196.435 544.214 194.463C547.838 192.49 552.037 191.839 556.089 192.621C560.142 193.403 563.795 195.569 566.421 198.747C569.048 201.925 570.483 205.916 570.481 210.036C570.483 211.279 570.352 212.52 570.092 213.737C570.121 213.82 570.151 213.898 570.187 213.982C570.882 215.775 571.667 217.617 572.356 219.207L575.741 222.269C575.741 222.269 577.179 223.464 579.335 225.258C584.026 229.204 592.131 236.152 596.313 240.403C599.991 244.158 601.141 258.711 601.489 269.67Z" fill="black"/>
<path d="M537.286 192.14C538.143 190.401 538.568 188.451 539.593 186.801C541.096 184.41 543.72 182.879 546.416 181.952C553.455 179.531 568.33 176.015 572.775 181.952C573.65 183.148 574.375 184.475 575.585 185.3C576.508 185.928 577.622 186.197 578.634 186.67C581.468 187.997 583.277 190.891 584.242 193.844C585.206 196.798 585.494 199.967 586.201 203.01C587.105 206.915 588.693 210.616 590.274 214.293C592.137 218.633 594.114 223.136 597.709 226.203C602.615 230.388 603.7 236.313 608.252 240.905C613.644 246.358 613.47 255.356 610.691 262.501C610.325 263.44 609.912 264.421 610.056 265.419C610.199 266.418 610.942 267.326 611.643 268.122L614.591 271.44C607.617 273.12 599.728 269.485 596.481 263.105C595.48 261.132 594.815 258.86 593.102 257.455C591.568 256.199 589.507 255.9 587.596 255.338C581.294 253.473 576.01 247.727 575.813 241.174C575.717 238.095 576.681 235.016 576.244 231.967C576.001 230.226 575.309 228.578 574.237 227.183C572.59 225.037 570.103 223.596 568.762 221.204C566.491 217.204 568.216 212.009 566.581 207.716C566.078 206.4 565.071 205.085 563.663 204.983C562.256 204.882 561.051 206.048 559.704 206.568C556.9 207.656 553.869 205.808 551.526 203.913C549.184 202.018 546.542 199.865 543.559 200.29C541.588 200.565 540.036 201.904 538.221 202.604C536.879 203.118 534.159 203.578 532.985 202.448C530.505 200.17 536.25 194.269 537.286 192.14Z" fill="#591D4B"/>
<path opacity="0.1" d="M598.146 261.132C597.14 259.159 596.481 256.887 594.768 255.488C593.234 254.232 591.173 253.927 589.256 253.365C582.96 251.506 577.676 245.76 577.472 239.207C577.376 236.128 578.341 233.042 577.91 229.993C577.659 228.264 576.968 226.627 575.903 225.24C574.249 223.093 571.763 221.652 570.427 219.261C568.157 215.267 569.882 210.071 568.241 205.772C567.743 204.463 566.731 203.147 565.329 203.04C563.927 202.932 562.711 204.11 561.369 204.63C558.566 205.718 555.528 203.865 553.192 201.976C550.856 200.086 548.202 197.928 545.224 198.346C543.253 198.627 541.696 199.967 539.886 200.66C538.545 201.174 535.819 201.641 534.645 200.511C532.176 198.119 537.921 192.23 538.952 190.113C539.809 188.367 540.234 186.424 541.264 184.774C541.318 184.684 541.378 184.595 541.438 184.505C540.667 185.142 540.002 185.897 539.467 186.741C538.443 188.391 538.017 190.328 537.161 192.08C536.124 194.197 530.379 200.104 532.853 202.478C534.051 203.614 536.747 203.147 538.089 202.633C539.886 201.934 541.456 200.594 543.427 200.319C546.422 199.895 549.058 202.053 551.395 203.943C553.731 205.832 556.786 207.685 559.578 206.597C560.92 206.077 562.094 204.905 563.532 205.013C564.97 205.12 565.928 206.43 566.449 207.745C568.085 212.038 566.36 217.234 568.63 221.234C569.972 223.584 572.458 225.054 574.106 227.213C575.178 228.607 575.869 230.255 576.112 231.996C576.55 235.045 575.585 238.125 575.681 241.204C575.879 247.781 581.163 253.503 587.465 255.368C589.364 255.93 591.437 256.229 592.97 257.485C594.69 258.89 595.367 261.162 596.349 263.135C599.596 269.514 607.486 273.149 614.459 271.469L613.069 269.903C607.025 269.993 600.908 266.561 598.146 261.132Z" fill="black"/>
<path opacity="0.1" d="M556.846 233.844C556.061 235.039 553.815 241.162 551.94 246.507C550.184 245.825 548.591 241.479 548.591 241.479L557.948 228.193C558.907 229.509 558.278 231.691 556.846 233.844Z" fill="black"/>
<path d="M557.205 233.485C556.421 234.681 554.174 240.803 552.299 246.149C550.544 245.473 548.95 241.12 548.95 241.12L558.308 227.841C559.266 229.15 558.637 231.339 557.205 233.485Z" fill="#DCE7FF"/>
<path d="M502.798 294.566L497.61 278.238C497.548 278.047 497.525 277.845 497.542 277.645C497.559 277.445 497.615 277.25 497.707 277.072C497.8 276.894 497.927 276.735 498.08 276.606C498.234 276.477 498.412 276.379 498.604 276.319C498.99 276.198 499.408 276.235 499.767 276.421C500.126 276.607 500.397 276.927 500.521 277.311L505.709 293.622L505.194 297.036L502.798 294.566Z" fill="#BE8B87"/>
<path opacity="0.1" d="M498.101 276.802C498.488 276.68 498.907 276.716 499.268 276.902C499.628 277.088 499.9 277.409 500.024 277.795L505.212 294.106L504.822 296.665L505.2 297.059L505.715 293.645L500.497 277.335C500.373 276.95 500.102 276.63 499.743 276.444C499.384 276.259 498.966 276.222 498.58 276.342C498.255 276.447 497.975 276.658 497.783 276.94C497.885 276.885 497.991 276.839 498.101 276.802Z" fill="white"/>
<path d="M502.798 294.566L505.709 293.646L505.284 296.444L505.194 297.06L504.343 296.175L502.798 294.566Z" fill="#EFC8C4"/>
<path d="M504.343 296.175C504.394 296.111 504.457 296.058 504.529 296.019C504.571 295.993 504.62 295.979 504.67 295.979C504.72 295.979 504.768 295.993 504.811 296.019C504.851 296.068 504.886 296.123 504.912 296.181C504.952 296.247 505.006 296.303 505.07 296.345C505.134 296.388 505.207 296.415 505.284 296.426L505.194 297.024L504.343 296.175Z" fill="#727A9C"/>
<path d="M497.58 284.037C497.58 284.037 507.986 283.977 505.535 288.396C503.085 292.814 499.257 293.346 499.257 293.346L497.58 284.037Z" fill="#FFB0B1"/>
<path d="M432.862 85.7441H432.413C414.536 85.7441 398.727 95.185 389.633 109.116C380.539 95.185 364.729 85.7441 346.853 85.7441H346.404C332.988 85.8717 320.165 91.2783 310.721 100.789C301.277 110.3 295.975 123.146 295.968 136.536C295.968 153.163 303.264 176.756 317.492 196.17C344.601 233.162 389.633 265.527 389.633 265.527C389.633 265.527 434.665 233.168 461.767 196.17C476.001 176.756 483.292 153.163 483.292 136.536C483.285 123.147 477.984 110.301 468.541 100.791C459.098 91.2806 446.277 85.8733 432.862 85.7441ZM426.434 199.016C424.398 199.008 422.412 198.387 420.737 197.232C419.061 196.077 417.775 194.444 417.046 192.547H406.359C405.655 192.543 404.97 192.319 404.4 191.907C403.83 191.496 403.402 190.917 403.178 190.251L399.895 180.38L389.507 216.606C389.305 217.304 388.881 217.917 388.3 218.354C387.719 218.79 387.011 219.027 386.284 219.028H386.074C385.315 218.991 384.592 218.696 384.025 218.191C383.458 217.686 383.082 217.002 382.959 216.254L372.254 151.991L364.43 190.018C364.25 190.74 363.834 191.382 363.246 191.84C362.659 192.299 361.935 192.547 361.189 192.547H346.134C345.683 192.566 345.232 192.494 344.81 192.335C344.387 192.175 344.001 191.932 343.675 191.62C343.349 191.309 343.09 190.934 342.912 190.519C342.735 190.105 342.644 189.658 342.644 189.208C342.644 188.757 342.735 188.311 342.912 187.896C343.09 187.481 343.349 187.107 343.675 186.795C344.001 186.483 344.387 186.24 344.81 186.081C345.232 185.922 345.683 185.849 346.134 185.868H358.553L369.636 134.742C369.818 133.986 370.257 133.317 370.879 132.848C371.5 132.38 372.266 132.142 373.044 132.174C373.822 132.207 374.565 132.508 375.145 133.026C375.726 133.545 376.108 134.249 376.226 135.017L387.159 200.571L396.468 168.159C396.662 167.476 397.072 166.874 397.637 166.443C398.201 166.012 398.891 165.775 399.601 165.767H399.667C400.371 165.767 401.057 165.989 401.628 166.402C402.198 166.814 402.623 167.395 402.842 168.063L408.779 185.886H416.915C417.493 184.132 418.546 182.572 419.957 181.378C421.367 180.183 423.081 179.401 424.91 179.117C426.738 178.834 428.609 179.06 430.316 179.771C432.024 180.481 433.501 181.649 434.586 183.145C435.67 184.641 436.32 186.406 436.462 188.247C436.605 190.088 436.235 191.933 435.394 193.577C434.552 195.222 433.272 196.602 431.694 197.566C430.116 198.53 428.302 199.04 426.452 199.04L426.434 199.016Z" fill="#48B1DD"/>
</g>
<path d="M448.441 418.271C447.398 417.502 446.327 416.788 445.238 416.111C444.582 415.685 443.908 415.286 443.234 414.897C443.142 414.841 443.05 414.786 442.957 414.73C439.576 412.805 436.021 411.204 432.34 409.947C428.771 408.725 425.096 407.837 421.363 407.296C421.306 407.282 421.247 407.273 421.188 407.268C420.182 407.12 419.166 406.999 418.142 406.916C417.431 406.842 416.71 406.786 415.99 406.758C415.067 406.693 414.144 406.656 413.202 406.647C412.925 406.638 412.639 406.638 412.353 406.638C409.337 406.636 406.326 406.856 403.342 407.296C402.687 407.389 402.031 407.49 401.385 407.602C400.951 407.685 400.527 407.769 400.102 407.852C398.338 408.214 396.606 408.643 394.904 409.14C394.129 409.372 393.362 409.613 392.596 409.873C391.562 410.216 390.547 410.587 389.54 410.994C388.645 411.337 387.767 411.717 386.9 412.107C379.751 415.342 373.273 419.902 367.808 425.548C365.648 427.764 363.657 430.141 361.853 432.657C360.994 433.853 360.179 435.083 359.407 436.347C357.98 438.653 356.709 441.053 355.603 443.531C353.344 448.565 351.766 453.88 350.913 459.335C350.408 462.561 350.155 465.821 350.156 469.087C350.156 469.68 350.165 470.273 350.184 470.857C350.547 484.39 355.31 497.431 363.746 507.991C364.65 509.141 365.601 510.253 366.589 511.328C367.577 512.403 368.602 513.451 369.663 514.452C370.965 515.694 372.313 516.862 373.707 517.984C382.269 524.825 392.481 529.271 403.307 530.871C414.133 532.472 425.187 531.169 435.35 527.096C436.753 526.54 438.129 525.937 439.467 525.27C438.471 524.176 437.523 523.039 436.624 521.858C435.285 522.489 433.928 523.063 432.534 523.583C422.906 527.178 412.499 528.134 402.381 526.353C392.263 524.573 382.799 520.119 374.963 513.451C373.744 512.413 372.553 511.319 371.427 510.179C370.162 508.909 368.953 507.583 367.817 506.202C366.838 505.025 365.897 503.801 365.02 502.541C357.554 491.926 353.854 479.103 354.512 466.126C355.17 453.149 360.148 440.769 368.648 430.97C369.165 430.368 369.691 429.784 370.226 429.218C371.325 428.06 372.461 426.938 373.643 425.872C379.196 420.843 385.667 416.943 392.698 414.387C392.762 414.359 392.836 414.341 392.901 414.313C393.122 414.23 393.353 414.155 393.584 414.072C395.776 413.318 398.011 412.696 400.277 412.209C401.099 412.033 401.93 411.875 402.761 411.736C402.779 411.736 402.788 411.727 402.807 411.727C405.153 411.341 407.521 411.097 409.897 410.994C410.709 410.957 411.531 410.939 412.353 410.939C413.369 410.939 414.393 410.967 415.399 411.032C416.119 411.059 416.849 411.115 417.56 411.18C418.187 411.235 418.815 411.3 419.434 411.384C426.626 412.261 433.587 414.501 439.947 417.984C441.589 418.876 443.185 419.851 444.73 420.904C445.967 421.747 447.176 422.637 448.34 423.564C449.54 422.683 450.786 421.849 452.06 421.07C450.888 420.088 449.678 419.142 448.441 418.271Z" fill="#1D2366"/>
<path d="M420.95 324.884L417.59 382.222H351.604C345.878 382.167 340.34 384.269 336.083 388.115C332.261 391.619 329.887 396.434 329.428 401.61L336.956 404.301C336.943 403.433 337.032 402.565 337.22 401.717C337.742 399.442 339.186 395.3 343.068 392.974C344.775 392.001 346.71 391.505 348.673 391.539H423.466L427.67 331.674H452.856V324.884H420.95Z" fill="#1D2366"/>
<path d="M486.45 353.578L486.431 354.032L484.382 408.139L484.216 412.44C483.616 412.421 483.016 412.412 482.406 412.412C481.225 412.412 480.052 412.449 478.889 412.523C473.186 412.855 467.565 414.045 462.215 416.055C460.83 416.574 459.464 417.149 458.135 417.77C456.045 418.745 454.016 419.847 452.06 421.07C450.786 421.849 449.54 422.683 448.34 423.563C443.231 427.31 438.763 431.865 435.11 437.051C433.83 438.855 432.661 440.738 431.611 442.686L426.727 442.733L393.381 443.104L374.021 443.326H374.012L360.367 443.474L355.603 443.53H355.261L350.913 443.576L341.524 443.688L337.157 443.734L331.101 443.799L334.876 407.963L367.808 409.789L373.642 410.113L375.175 410.197L389.54 410.994L392.624 411.161L400.249 411.587L402.806 411.726L415.205 412.412L415.399 411.031L415.768 408.361L415.99 406.758L417.181 398.128L417.559 395.421L418.095 391.537V391.509L418.141 391.157L419.378 382.221L420.384 375L421.317 368.28V368.252L422.803 357.453L423.053 355.682L425.989 355.58L437.399 355.21L442.44 355.043L458.292 354.514L480.403 353.782H480.412L482.24 353.717L482.674 353.699H482.683L486.45 353.578Z" fill="#2F2E41"/>
<path d="M482.406 482.036C488.724 482.036 493.845 476.894 493.845 470.55C493.845 464.207 488.724 459.065 482.406 459.065C476.089 459.065 470.968 464.207 470.968 470.55C470.968 476.894 476.089 482.036 482.406 482.036Z" fill="#1D2366"/>
<path d="M406.184 478.713C410.527 478.713 414.048 475.178 414.048 470.818C414.048 466.457 410.527 462.922 406.184 462.922C401.841 462.922 398.32 466.457 398.32 470.818C398.32 475.178 401.841 478.713 406.184 478.713Z" fill="#1D2366"/>
<path d="M459.4 412.542C458.005 413.089 456.63 413.7 455.282 414.359C452.921 415.515 450.636 416.821 448.441 418.27C447.167 419.095 445.93 419.973 444.73 420.903C438.895 425.374 433.889 430.839 429.94 437.05H435.11C438.763 431.865 443.231 427.309 448.34 423.563C449.54 422.683 450.786 421.848 452.06 421.07C454.016 419.846 456.045 418.744 458.135 417.77C459.464 417.149 460.83 416.574 462.215 416.055C467.565 414.045 473.186 412.855 478.888 412.523V408.204C472.2 408.575 465.618 410.041 459.4 412.542ZM425.453 445.476H430.171C430.623 444.531 431.103 443.595 431.611 442.686L426.727 442.733C426.274 443.632 425.85 444.549 425.453 445.476ZM486.45 408.241C485.767 408.185 485.074 408.157 484.382 408.139C483.726 408.111 483.071 408.102 482.406 408.102C481.225 408.102 480.052 408.139 478.889 408.204C472.2 408.575 465.618 410.041 459.4 412.542C458.005 413.089 456.63 413.7 455.282 414.359C452.921 415.515 450.636 416.821 448.441 418.27C447.167 419.095 445.93 419.973 444.73 420.903C437.153 426.71 430.996 434.176 426.727 442.733C426.274 443.632 425.85 444.549 425.453 445.476C424.085 448.579 422.98 451.791 422.148 455.08C421.598 457.211 421.167 459.371 420.855 461.55C420.578 463.459 420.391 465.391 420.292 467.343C420.237 468.409 420.209 469.475 420.209 470.551C420.21 472.917 420.343 475.281 420.606 477.633C421.849 488.579 425.966 498.998 432.534 507.824C433.429 509.029 434.371 510.206 435.35 511.337C442.046 519.126 450.556 525.133 460.122 528.823C469.689 532.513 480.015 533.772 490.183 532.488C500.351 531.204 510.045 527.416 518.403 521.462C526.762 515.507 533.524 507.571 538.09 498.359C542.656 489.147 544.884 478.945 544.575 468.66C544.266 458.375 541.43 448.326 536.319 439.407C531.208 430.488 523.981 422.976 515.281 417.539C506.58 412.101 496.676 408.907 486.45 408.241H486.45ZM482.406 528.689C474.31 528.693 466.303 526.988 458.906 523.684C451.508 520.38 444.886 515.551 439.467 509.511C438.47 508.417 437.523 507.28 436.624 506.099C429.18 496.487 424.95 484.759 424.539 472.59C424.511 471.913 424.502 471.237 424.502 470.551C424.493 461.871 426.431 453.301 430.171 445.476C430.623 444.531 431.103 443.595 431.611 442.686C432.661 440.738 433.83 438.855 435.11 437.05C438.763 431.865 443.231 427.309 448.34 423.563C449.54 422.683 450.786 421.848 452.06 421.07C454.016 419.846 456.045 418.744 458.135 417.77C459.464 417.149 460.83 416.574 462.215 416.055C467.565 414.045 473.186 412.855 478.889 412.523C480.052 412.449 481.224 412.412 482.406 412.412C483.016 412.412 483.616 412.421 484.216 412.44C484.963 412.467 485.711 412.505 486.45 412.551C501.422 413.601 515.403 420.447 525.446 431.645C535.489 442.844 540.809 457.52 540.285 472.581C539.761 487.641 533.433 501.909 522.635 512.376C511.838 522.843 497.415 528.692 482.406 528.689ZM424.539 472.59C424.511 471.913 424.502 471.237 424.502 470.551C424.493 461.871 426.431 453.301 430.171 445.476H425.453C424.085 448.579 422.98 451.791 422.148 455.08C422.289 455.681 422.361 456.297 422.36 456.915C422.361 458.581 421.834 460.204 420.855 461.55C420.578 463.459 420.391 465.391 420.292 467.343C420.237 468.409 420.209 469.475 420.209 470.551C420.211 472.917 420.343 475.281 420.606 477.633C421.849 488.579 425.966 498.998 432.534 507.824C433.928 507.304 435.285 506.73 436.624 506.099C429.18 496.487 424.95 484.759 424.539 472.59Z" fill="#1D2366"/>
<path opacity="0.1" d="M446.872 383.026C447.409 383.026 447.844 382.589 447.844 382.049C447.844 381.51 447.409 381.073 446.872 381.073C446.335 381.073 445.9 381.51 445.9 382.049C445.9 382.589 446.335 383.026 446.872 383.026Z" fill="black"/>
<path opacity="0.1" d="M443.569 399.198C444.106 399.198 444.542 398.76 444.542 398.221C444.542 397.682 444.106 397.245 443.569 397.245C443.032 397.245 442.597 397.682 442.597 398.221C442.597 398.76 443.032 399.198 443.569 399.198Z" fill="black"/>
<path d="M320.115 500.57L311.35 500.569L307.181 466.626L320.116 466.627L320.115 500.57Z" fill="#DC8384"/>
<path d="M320.115 497.702L311.002 497.692H305.094C303.649 497.692 302.217 497.977 300.882 498.532C299.547 499.087 298.333 499.901 297.311 500.927C296.289 501.954 295.479 503.172 294.926 504.513C294.373 505.853 294.089 507.291 294.089 508.742V509.103H322.349V497.702H320.115Z" fill="#2F2E41"/>
<path d="M349.136 504.802L340.373 504.621L336.896 470.6L349.829 470.866L349.136 504.802Z" fill="#DC8384"/>
<path d="M349.196 501.929L340.075 501.743L334.175 501.623C332.731 501.59 331.294 501.844 329.947 502.37C328.601 502.896 327.371 503.684 326.328 504.688C325.285 505.692 324.45 506.893 323.87 508.221C323.29 509.55 322.977 510.981 322.949 512.431L322.94 512.793L351.199 513.377L351.246 511.031L351.43 501.975L349.196 501.929Z" fill="#2F2E41"/>
<path d="M379.663 383.208L329.027 399.978C326.019 400.723 323.284 402.31 321.14 404.556C318.997 406.802 317.534 409.613 316.921 412.663L301.624 488.857L326.145 489.242L341.644 425.207L375.106 411.461L349.466 426.359C347.152 428.203 345.36 430.624 344.272 433.382L329.183 489.932H356.228L371.599 444.711L438.306 406.531L379.663 383.208Z" fill="#2F2E41"/>
<path d="M430.742 303.66L398.686 307.566C398.686 307.566 379.869 316.041 379.869 320.347C379.869 324.654 372.379 386.388 372.379 386.388C372.379 386.388 365.716 390.517 391.737 397.782C417.758 405.048 422.428 415.078 422.428 415.078L424.408 423.459L454.219 412.944L459.223 341.164L464.934 313.213L445.64 302.402L430.742 303.66Z" fill="#48B1DD"/>
<path d="M416.99 297.406C429.646 297.406 439.906 287.105 439.906 274.397C439.906 261.69 429.646 251.389 416.99 251.389C404.334 251.389 394.074 261.69 394.074 274.397C394.074 287.105 404.334 297.406 416.99 297.406Z" fill="#DC8384"/>
<path d="M432.697 250.776L433.153 248.312L427.016 247.168C427.016 247.168 418.336 239.176 408.377 244.969C398.418 250.762 394.052 253.773 394.052 253.773L389.458 258.016L392.913 259.935L388.547 262.946L392.229 263.632L389.091 266.872L394.262 277.397C394.262 277.397 395.228 268.016 402.592 269.388C409.957 270.761 420.372 262.503 420.372 262.503L436.277 279.491C436.277 279.491 436.41 271.902 440.709 272.685C440.71 272.685 445.971 254.525 432.697 250.776Z" fill="#2F2E41"/>
<path d="M438.585 352.764C439.363 351.594 440.387 350.609 441.585 349.88C442.782 349.15 444.125 348.693 445.518 348.541C446.911 348.389 448.32 348.545 449.646 348.999C450.972 349.452 452.183 350.192 453.193 351.167L483.532 335.633L481.564 353.291L453.056 365.336C451.313 366.931 449.048 367.83 446.689 367.861C444.331 367.892 442.043 367.053 440.259 365.503C438.475 363.954 437.32 361.801 437.011 359.453C436.702 357.105 437.262 354.725 438.585 352.764Z" fill="#DC8384"/>
<path d="M457.492 314.563L464.934 313.213L504.642 331.044L507.344 348.517L483.53 354.802L471.069 338.712L452.831 343.793L442.065 327.525L457.492 314.563Z" fill="#48B1DD"/>
<path d="M422.083 334.572L421.162 374.971C421.139 376.01 421.958 376.871 422.993 376.895L440.059 377.286C441.093 377.31 441.951 376.487 441.975 375.449L442.895 335.049C442.918 334.011 442.099 333.15 441.065 333.126L423.998 332.734C422.964 332.71 422.106 333.533 422.083 334.572Z" fill="#1D2366"/>
<path d="M422.689 357.397C421.466 356.855 420.14 356.59 418.804 356.618C417.467 356.647 416.154 356.97 414.955 357.563C413.756 358.157 412.702 359.007 411.866 360.054C411.03 361.102 410.433 362.32 410.116 363.624L377.773 366.722L388.364 379.924L417.454 374.958C419.671 375.346 421.953 374.904 423.867 373.716C425.781 372.528 427.195 370.677 427.84 368.512C428.486 366.347 428.318 364.02 427.368 361.972C426.419 359.923 424.754 358.295 422.689 357.397Z" fill="#DC8384"/>
<path d="M389.807 326.494L388.113 358.105L394.468 360.123L391.737 382.16L375.419 384.636L382.229 327.584L389.807 326.494Z" fill="#48B1DD"/>
<path d="M483.93 324.88L483.293 335.753L483.043 339.999V340.054L482.268 353.171L482.24 353.718L480.569 382.221H414.347C408.701 382.223 403.254 384.323 399.059 388.117C398.369 388.75 397.721 389.428 397.12 390.147C396.746 390.592 396.395 391.056 396.067 391.537C395.645 392.13 395.257 392.746 394.904 393.382C394.076 394.884 393.44 396.485 393.012 398.147C392.965 398.28 392.928 398.416 392.901 398.554C392.652 399.559 392.483 400.582 392.393 401.613L392.596 409.873L392.624 411.161L392.698 414.387L393.122 432.388L393.381 443.104L393.621 453.198C387.555 453.05 377.133 456.276 371.104 477.893C369.774 482.657 368.703 486.819 367.817 490.444C367.365 492.288 366.956 493.997 366.589 495.57C365.971 498.258 365.463 500.566 365.02 502.54C364.53 504.765 364.124 506.554 363.746 507.991C362.426 512.867 361.373 513.488 358.04 512.227C355.817 511.617 353.543 511.216 351.246 511.031C344.404 510.216 333.815 509.465 323.614 508.862C323.189 508.844 322.773 508.816 322.349 508.788C307.79 507.935 294.394 507.398 294.394 507.398V515.814L358.04 521.562C358.04 521.562 364.604 524.519 369.663 514.452C370.356 513.073 370.945 511.645 371.427 510.179C371.75 509.261 372.055 508.269 372.341 507.203C372.793 505.553 373.249 503.894 373.707 502.225C374.123 500.714 374.547 499.194 374.963 497.692C377.705 487.792 380.345 478.495 381.896 473.147C382.487 470.983 383.543 468.977 384.992 467.269C386.441 465.562 388.246 464.195 390.279 463.265C391.699 462.595 393.252 462.256 394.821 462.273L402.336 461.94L401.579 445.477H430.171C430.624 444.531 431.104 443.595 431.611 442.687C432.661 440.738 433.83 438.856 435.11 437.051H401.256L400.896 427.939L400.277 412.208L400.249 411.587L400.102 407.852L399.963 404.302C399.943 403.423 400.03 402.545 400.222 401.688C400.296 401.363 400.388 400.992 400.508 400.603C400.983 398.94 401.745 397.375 402.761 395.978C403.479 394.993 404.348 394.129 405.337 393.419C405.571 393.249 405.815 393.091 406.066 392.946C407.504 392.128 409.107 391.647 410.756 391.537C411.057 391.509 411.359 391.5 411.661 391.51H478.889V412.524C480.052 412.45 481.224 412.412 482.406 412.412C483.016 412.412 483.616 412.422 484.216 412.44C484.964 412.468 485.712 412.505 486.45 412.551V391.306L489.109 353.328L490.632 331.647H515.826L515.836 324.88H483.93Z" fill="#1D2366"/>
<defs>
<linearGradient id="paint0_linear" x1="223.468" y1="518.294" x2="223.468" y2="150.382" gradientUnits="userSpaceOnUse">
<stop stop-color="#808080" stop-opacity="0.25"/>
<stop offset="0.54" stop-color="#808080" stop-opacity="0.12"/>
<stop offset="1" stop-color="#808080" stop-opacity="0.1"/>
</linearGradient>
<linearGradient id="paint1_linear" x1="133732" y1="277649" x2="133732" y2="88797" gradientUnits="userSpaceOnUse">
<stop stop-color="#808080" stop-opacity="0.25"/>
<stop offset="0.54" stop-color="#808080" stop-opacity="0.12"/>
<stop offset="1" stop-color="#808080" stop-opacity="0.1"/>
</linearGradient>
<clipPath id="clip0">
<rect width="662" height="468" fill="white" transform="translate(10 55)"/>
</clipPath>
</defs>
</svg>
