<svg width="33" height="24" viewBox="0 0 33 24" fill="none" xmlns="http://www.w3.org/2000/svg">
<path fill-rule="evenodd" clip-rule="evenodd" d="M7.01223 12.082L15.7044 3.6843C16.2009 3.20463 15.4562 2.48517 14.9597 2.96483L5.89514 11.7223C5.76151 11.8514 5.71778 11.9978 5.73846 12.165C5.75563 12.2595 5.80488 12.3545 5.89514 12.4417L14.9597 21.1992C15.4562 21.6789 16.2009 20.9594 15.7044 20.4797L7.01223 12.082Z" fill="#A3E8FF" stroke="#A3E8FF"/>
<path d="M7.2002 11.9992C7.2002 11.5574 7.55837 11.1992 8.0002 11.1992H31.4002C31.842 11.1992 32.2002 11.5574 32.2002 11.9992C32.2002 12.441 31.842 12.7992 31.4002 12.7992H8.00019C7.55837 12.7992 7.2002 12.441 7.2002 11.9992Z" fill="#A3E8FF"/>
<rect width="1.6" height="24" rx="0.8" fill="#A3E8FF"/>
</svg>
