<svg width="33" height="24" viewBox="0 0 33 24" fill="none" xmlns="http://www.w3.org/2000/svg">
<path fill-rule="evenodd" clip-rule="evenodd" d="M25.188 12.082L16.4958 3.6843C15.9993 3.20463 16.744 2.48517 17.2405 2.96483L26.3051 11.7223C26.4387 11.8514 26.4824 11.9978 26.4617 12.165C26.4446 12.2595 26.3953 12.3545 26.3051 12.4417L17.2405 21.1992C16.744 21.6789 15.9993 20.9594 16.4958 20.4797L25.188 12.082Z" fill="#A3E8FF" stroke="#A3E8FF"/>
<path d="M25 11.9992C25 11.5574 24.6418 11.1992 24.2 11.1992H0.799999C0.358171 11.1992 0 11.5574 0 11.9992C0 12.441 0.358171 12.7992 0.799999 12.7992H24.2C24.6418 12.7992 25 12.441 25 11.9992Z" fill="#A3E8FF"/>
<rect width="1.6" height="24" rx="0.8" transform="matrix(-1 0 0 1 32.2002 0)" fill="#A3E8FF"/>
</svg>
