<?xml version="1.0" encoding="utf-8"?>
<!-- Generator: Adobe Illustrator 19.2.1, SVG Export Plug-In . SVG Version: 6.00 Build 0)  -->
<svg version="1.1" id="Layer_1" xmlns="http://www.w3.org/2000/svg" xmlns:xlink="http://www.w3.org/1999/xlink" x="0px" y="0px"
	 viewBox="0 0 1000 1000" style="enable-background:new 0 0 1000 1000;" xml:space="preserve">
<g>
	<path d="M925.7,293.3H342.2c-41.5,0-74.9-33.5-74.9-74.9c0-41.5,33.4-74.9,74.9-74.9h583.5c41.5,0,75,33.5,75,74.9
		C1000.7,259.8,967.2,293.3,925.7,293.3z M1000.7,499.6c0-41.5-33.5-74.9-75-74.9H342.2c-41.5,0-74.9,33.5-74.9,74.9
		s33.4,74.9,74.9,74.9h583.5C967.2,574.6,1000.7,541.1,1000.7,499.6z M1000.7,780.9c0-41.4-33.5-74.9-75-74.9H342.2
		c-41.5,0-74.9,33.5-74.9,74.9c0,41.5,33.4,74.9,74.9,74.9h583.5C967.2,855.8,1000.7,822.4,1000.7,780.9z"/>
	<path d="M150.7,218.5c0,41.4-33.6,75.1-75,75.1c-41.5,0-75-33.6-75-75.1c0-41.5,33.5-75.1,75-75.1
		C117.1,143.5,150.7,177,150.7,218.5z"/>
	<path d="M150.7,218.5c0,41.4-33.6,75.1-75,75.1c-41.5,0-75-33.6-75-75.1c0-41.5,33.5-75.1,75-75.1
		C117.1,143.5,150.7,177,150.7,218.5z"/>
	<path d="M150.7,499.6c0,41.5-33.6,75.1-75,75.1c-41.5,0-75-33.6-75-75.1s33.5-75.1,75-75.1C117.1,424.6,150.7,458.2,150.7,499.6z"
		/>
	<path d="M150.7,780.8c0,41.5-33.6,75.1-75,75.1c-41.5,0-75-33.6-75-75.1c0-41.4,33.5-75.1,75-75.1
		C117.1,705.7,150.7,739.3,150.7,780.8z"/>
</g>
</svg>
