<?xml version="1.0" encoding="utf-8"?>
<!-- Generator: Adobe Illustrator 19.2.1, SVG Export Plug-In . SVG Version: 6.00 Build 0)  -->
<svg version="1.1" id="Layer_1" xmlns="http://www.w3.org/2000/svg" xmlns:xlink="http://www.w3.org/1999/xlink" x="0px" y="0px"
	 viewBox="0 0 1000 1000" style="enable-background:new 0 0 1000 1000;" xml:space="preserve">
<g>
	<path d="M224.7,594.7c-2.2,0-4.6-0.4-6.8-1.3c-6.6-2.8-10.9-9.2-10.9-16.4V429c0-9.8,7.9-17.7,17.7-17.7c9.9,0,17.8,7.9,17.8,17.7
		v105.1l43.7-43.7c6.9-6.9,18.1-6.9,25.1,0c6.9,6.9,6.9,18.2,0,25.1l-74,74C233.9,592.9,229.3,594.7,224.7,594.7z M449.8,550.8
		C449.8,426.9,348.9,326,225,326C101,326,0.2,426.9,0.2,550.8S101,775.7,225,775.7C348.9,775.7,449.8,674.8,449.8,550.8z
		 M402.5,550.8c0,97.9-79.6,177.4-177.5,177.4c-97.8,0-177.4-79.6-177.4-177.4S127.2,373.4,225,373.4
		C322.8,373.4,402.5,453,402.5,550.8z"/>
	<path d="M442.4,384.8c56.4,62.7,59.2,124.8,59.2,167.7c0,65.5-22.3,125.9-59.2,174.3v94.9c0,17.2,13.9,31.2,31.2,31.2H969
		c17.2,0,31.2-14,31.2-31.2V178.8c0-17.2-14-31.2-31.2-31.2H473.5c-17.3,0-31.2,14-31.2,31.2v111.4 M905.5,744H552.8v-50.5h352.7
		V744z M905.5,626.8H552.8v-50.5h352.7V626.8z M905.5,509.6l-352.7,4.1v-50.5l352.7-4.1V509.6z M905.5,396.6l-352.7,4.1v-50.5
		l352.7-4.1V396.6z M905.5,283.7l-352.7,4.1v-50.6l352.7-4.1V283.7z"/>
</g>
</svg>
